<svg version="1.1" viewBox="0.0 0.0 600.0 371.0" fill="none" stroke="none" stroke-linecap="square" stroke-miterlimit="10" width="600" height="371" xmlns:xlink="http://www.w3.org/1999/xlink" xmlns="http://www.w3.org/2000/svg"><path fill="#000000" d="M0 0L600.0 0L600.0 371.0L0 371.0L0 0Z" fill-rule="nonzero"/><path fill="#4285f4" d="M300.0 88.38917C315.33542 88.38917 330.5786 90.04898 345.1894 93.30978L300.0 192.52583Z" fill-rule="nonzero"/><path fill="#ea4335" d="M345.1894 93.30978C359.86044 96.58403 373.71634 101.432884 386.262 107.68309L300.0 192.52583Z" fill-rule="nonzero"/><path fill="#fbbc04" d="M386.262 107.68309C389.7168 109.40427 393.0649 111.22805 396.29712 113.14946L300.0 192.52583Z" fill-rule="nonzero"/><path fill="#34a853" d="M396.29712 113.14946C400.0978 115.4088 403.73383 117.80046 407.1914 120.31541L300.0 192.52583Z" fill-rule="nonzero"/><path fill="#ff6d01" d="M407.1914 120.31541C410.649 122.83035 413.92377 125.465385 417.0033 128.21054L300.0 192.52583Z" fill-rule="nonzero"/><path fill="#46bdc6" d="M417.0033 128.21054C418.4466 129.49712 419.84637 130.80731 421.2015 132.14006L300.0 192.52583Z" fill-rule="nonzero"/><path fill="#7baaf7" d="M421.2015 132.14006C422.46628 133.38394 423.6918 134.64716 424.87723 135.92876L300.0 192.52583Z" fill-rule="nonzero"/><path fill="#f07b72" d="M424.87723 135.92876C426.232 137.39348 427.53397 138.88179 428.7819 140.3923L300.0 192.52583Z" fill-rule="nonzero"/><path fill="#fcd04f" d="M428.7819 140.3923C429.6021 141.38512 430.39886 142.38734 431.17178 143.39857L300.0 192.52583Z" fill-rule="nonzero"/><path fill="#71c287" d="M431.17178 143.39857C431.68625 144.07167 432.19012 144.74869 432.68332 145.42953L300.0 192.52583Z" fill-rule="nonzero"/><path fill="#ff994d" d="M432.68332 145.42953C433.0503 145.93611 433.41132 146.44478 433.7664 146.95549L300.0 192.52583Z" fill-rule="nonzero"/><path fill="#7ed1d7" d="M433.7664 146.95549C434.1754 147.54382 434.57654 148.13486 434.96967 148.72849L300.0 192.52583Z" fill-rule="nonzero"/><path fill="#b3cefb" d="M434.96967 148.72849C435.31036 149.24297 435.64508 149.75938 435.97372 150.2777L300.0 192.52583Z" fill-rule="nonzero"/><path fill="#f7b4ae" d="M435.97372 150.2777C436.1697 150.58678 436.36356 150.89651 436.55524 151.20692L300.0 192.52583Z" fill-rule="nonzero"/><path fill="#fde49b" d="M436.55524 151.20692C436.77698 151.56602 436.99585 151.926 437.2118 152.28683L300.0 192.52583Z" fill-rule="nonzero"/><path fill="#aedcba" d="M437.2118 152.28683C437.55945 152.86769 437.89954 153.45073 438.23206 154.0359L300.0 192.52583Z" fill-rule="nonzero"/><path fill="#ffc599" d="M438.23206 154.0359C438.27353 154.10887 438.31485 154.18185 438.35608 154.25488L300.0 192.52583Z" fill-rule="nonzero"/><path fill="#b5e5e8" d="M438.35608 154.25488C442.95462 162.4009 446.06662 170.92047 447.61832 179.61182L300.0 192.52583Z" fill-rule="nonzero"/><path fill="#a5aab2" d="M448.76666 214.84084C448.76666 219.81648 448.25723 224.78574 447.24228 229.7104L447.24228 207.39542C448.25723 202.47073 448.76666 197.50148 448.76666 192.52583Z" fill-rule="nonzero"/><path fill="#ecf3fe" d="M447.61832 179.61182C449.26645 188.8432 449.13998 198.18755 447.24228 207.39542L300.0 192.52583Z" fill-rule="nonzero"/><path fill="#b1a5a5" d="M447.24228 229.7104C447.04025 230.69066 446.81827 231.66884 446.57635 232.64465L446.57635 210.32965C446.81827 209.35384 447.04025 208.37566 447.24228 207.39542Z" fill-rule="nonzero"/><path fill="#fdeceb" d="M447.24228 207.39542C447.04025 208.37566 446.81827 209.35384 446.57635 210.32965L300.0 192.52583Z" fill-rule="nonzero"/><path fill="#b3aea1" d="M446.57635 232.64465C446.38245 233.42697 446.17575 234.2077 445.9563 234.98671L445.9563 212.6717C446.17575 211.8927 446.38245 211.11197 446.57635 210.32965Z" fill-rule="nonzero"/><path fill="#fff8e6" d="M446.57635 210.32965C446.38245 211.11197 446.17575 211.8927 445.9563 212.6717L300.0 192.52583Z" fill-rule="nonzero"/><path fill="#a5aca7" d="M445.9563 234.98671C445.73688 235.7657 445.50473 236.54292 445.2599 237.3182L445.2599 215.00322C445.50473 214.22792 445.73688 213.4507 445.9563 212.6717Z" fill-rule="nonzero"/><path fill="#ebf6ee" d="M445.9563 212.6717C445.73688 213.4507 445.50473 214.22792 445.2599 215.00322L300.0 192.52583Z" fill-rule="nonzero"/><path fill="#b3a8a1" d="M445.2599 237.3182C445.21106 237.47285 445.1617 237.62743 445.11188 237.7819L445.11188 215.4669C445.1617 215.31242 445.21106 215.15785 445.2599 215.00322Z" fill-rule="nonzero"/><path fill="#fff0e6" d="M445.2599 215.00322C445.21106 215.15785 445.1617 215.31242 445.11188 215.4669L300.0 192.52583Z" fill-rule="nonzero"/><path fill="#a6aeae" d="M445.11188 237.7819C445.08728 237.85812 445.06256 237.93431 445.03772 238.01048L445.03772 215.69548C445.06256 215.61931 445.08728 215.54312 445.11188 215.4669Z" fill-rule="nonzero"/><path fill="#edf8f9" d="M445.11188 215.4669C445.08728 215.54312 445.06256 215.61931 445.03772 215.69548L300.0 192.52583Z" fill-rule="nonzero"/><path fill="#1a1001" d="M445.03772 238.01048C445.0129 238.08665 444.98795 238.16281 444.96286 238.23895L444.96286 215.92395C444.98795 215.84781 445.0129 215.77165 445.03772 215.69548Z" fill-rule="nonzero"/><path fill="#251701" d="M445.03772 215.69548C445.0129 215.77165 444.98795 215.84781 444.96286 215.92395L300.0 192.52583Z" fill-rule="nonzero"/><path fill="#021a1b" d="M444.96286 238.23895C444.94998 238.27805 444.93707 238.31714 444.92413 238.35622L444.92413 216.04121C444.93707 216.00214 444.94998 215.96304 444.96286 215.92395Z" fill-rule="nonzero"/><path fill="#032527" d="M444.96286 215.92395C444.94998 215.96304 444.93707 216.00214 444.92413 216.04121L300.0 192.52583Z" fill-rule="nonzero"/><path fill="#010922" d="M444.92413 238.35622C444.89893 238.43234 444.8736 238.50842 444.84814 238.5845L444.84814 216.2695C444.8736 216.19344 444.89893 216.11734 444.92413 216.04121Z" fill-rule="nonzero"/><path fill="#010d31" d="M444.92413 216.04121C444.89893 216.11734 444.8736 216.19344 444.84814 216.2695L300.0 192.52583Z" fill-rule="nonzero"/><path fill="#1d0c17" d="M444.84814 238.5845C443.7955 241.73112 442.53418 244.84174 441.06827 247.90625L441.06827 225.59125C442.53418 222.52673 443.7955 219.41612 444.84814 216.2695Z" fill-rule="nonzero"/><path fill="#291121" d="M444.84814 216.2695C443.7955 219.41612 442.53418 222.52673 441.06827 225.59125L300.0 192.52583Z" fill-rule="nonzero"/><path fill="#b31423" d="M441.06827 247.90625C440.40063 249.30193 439.6908 250.68753 438.93927 252.06215L438.93927 229.74715C439.6908 228.37253 440.40063 226.98692 441.06827 225.59125Z" fill-rule="nonzero"/><path fill="#ff1d32" d="M441.06827 225.59125C440.40063 226.98692 439.6908 228.37253 438.93927 229.74715L300.0 192.52583Z" fill-rule="nonzero"/><path fill="#1a0907" d="M438.93927 252.06215C438.57153 252.73479 438.19382 253.40472 437.8062 254.07188L437.8062 231.75688C438.19382 231.08972 438.57153 230.41978 438.93927 229.74715Z" fill-rule="nonzero"/><path fill="#250d0a" d="M438.93927 229.74715C438.57153 230.41978 438.19382 231.08972 437.8062 231.75688L300.0 192.52583Z" fill-rule="nonzero"/><path fill="#432b04" d="M437.8062 254.07188C437.57144 254.47595 437.33307 254.87898 437.09106 255.28096L437.09106 232.96596C437.33307 232.56398 437.57144 232.16095 437.8062 231.75688Z" fill-rule="nonzero"/><path fill="#5f3d05" d="M437.8062 231.75688C437.57144 232.16095 437.33307 232.56398 437.09106 232.96596L300.0 192.52583Z" fill-rule="nonzero"/><path fill="#084146" d="M437.09106 255.28096C436.73257 255.87648 436.36615 256.46964 435.99185 257.0604L435.99185 234.74539C436.36615 234.15465 436.73257 233.56148 437.09106 232.96596Z" fill-rule="nonzero"/><path fill="#0b5d64" d="M437.09106 232.96596C436.73257 233.56148 436.36615 234.15465 435.99185 234.74539L300.0 192.52583Z" fill-rule="nonzero"/><path fill="#011758" d="M435.99185 257.0604C435.8665 257.25827 435.7402 257.4559 435.61307 257.65326L435.61307 235.33826C435.7402 235.14091 435.8665 234.94328 435.99185 234.74539Z" fill-rule="nonzero"/><path fill="#01217d" d="M435.99185 234.74539C435.8665 234.94328 435.7402 235.14091 435.61307 235.33826L300.0 192.52583Z" fill-rule="nonzero"/><path fill="#471e3c" d="M435.61307 257.65326C435.5846 257.69745 435.5561 257.7416 435.52753 257.78577L435.52753 235.47076C435.5561 235.4266 435.5846 235.38243 435.61307 235.33826Z" fill-rule="nonzero"/><path fill="#652b55" d="M435.61307 235.33826C435.5846 235.38243 435.5561 235.4266 435.52753 235.47076L300.0 192.52583Z" fill-rule="nonzero"/><path fill="#b33358" d="M435.52753 257.78577C434.71848 259.03683 433.87418 260.27658 432.9951 261.50427L432.9951 239.18929C433.87418 237.96158 434.71848 236.72183 435.52753 235.47076Z" fill-rule="nonzero"/><path fill="#ff497e" d="M435.52753 235.47076C434.71848 236.72183 433.87418 237.96158 432.9951 239.18929L300.0 192.52583Z" fill-rule="nonzero"/><path fill="#411714" d="M432.9951 261.50427C432.94336 261.5765 432.89154 261.64868 432.83957 261.7208L432.83957 239.4058C432.89154 239.33366 432.94336 239.26149 432.9951 239.18929Z" fill-rule="nonzero"/><path fill="#5d211c" d="M432.9951 239.18929C432.94336 239.26149 432.89154 239.33366 432.83957 239.4058L300.0 192.52583Z" fill-rule="nonzero"/><path fill="#6a4406" d="M432.83957 261.7208C429.33118 266.59213 425.28134 271.26294 420.72748 275.69012L420.72748 253.3751C425.28134 248.94794 429.33118 244.27713 432.83957 239.4058Z" fill-rule="nonzero"/><path fill="#976108" d="M432.83957 239.4058C429.33118 244.27713 425.28134 248.94794 420.72748 253.3751L300.0 192.52583Z" fill-rule="nonzero"/><path fill="#0c6871" d="M420.72748 275.69012C416.1736 280.11728 411.12982 284.2871 405.64267 288.1611L405.64267 265.8461C411.12982 261.9721 416.1736 257.80228 420.72748 253.3751Z" fill-rule="nonzero"/><path fill="#1195a1" d="M420.72748 253.3751C416.1736 257.80228 411.12982 261.9721 405.64267 265.8461L300.0 192.52583Z" fill-rule="nonzero"/><path fill="#02258c" d="M405.64267 288.1611C403.083 289.96826 400.4296 291.7091 397.68774 293.38016L397.68774 271.06516C400.4296 269.3941 403.083 267.65326 405.64267 265.8461Z" fill-rule="nonzero"/><path fill="#0335c8" d="M405.64267 265.8461C403.083 267.65326 400.4296 269.3941 397.68774 271.06516L300.0 192.52583Z" fill-rule="nonzero"/><path fill="#713060" d="M397.68774 293.38016C396.1211 294.335 394.52603 295.26672 392.90366 296.1748L392.90366 273.8598C394.52603 272.95172 396.1211 272.02 397.68774 271.06516Z" fill-rule="nonzero"/><path fill="#a14589" d="M397.68774 271.06516C396.1211 272.02 394.52603 272.95172 392.90366 273.8598L300.0 192.52583Z" fill-rule="nonzero"/><path fill="#b3528d" d="M392.90366 296.1748C392.29526 296.5153 391.68307 296.85248 391.06714 297.18625L391.06714 274.87125C391.68307 274.53748 392.29526 274.20032 392.90366 273.8598Z" fill-rule="nonzero"/><path fill="#ff75ca" d="M392.90366 273.8598C392.29526 274.20032 391.68307 274.53748 391.06714 274.87125L300.0 192.52583Z" fill-rule="nonzero"/><path fill="#672520" d="M391.06714 297.18625C390.57437 297.45328 390.07922 297.7181 389.58173 297.9808L389.58173 275.6658C390.07922 275.40314 390.57437 275.13828 391.06714 274.87125Z" fill-rule="nonzero"/><path fill="#93352d" d="M391.06714 274.87125C390.57437 275.13828 390.07922 275.40314 389.58173 275.6658L300.0 192.52583Z" fill-rule="nonzero"/><path fill="#915d08" d="M389.58173 297.9808C389.1671 298.19968 388.7509 298.41705 388.33304 298.6329L388.33304 276.3179C388.7509 276.10205 389.1671 275.88467 389.58173 275.6658Z" fill-rule="nonzero"/><path fill="#cf850b" d="M389.58173 275.6658C389.1671 275.88467 388.7509 276.10205 388.33304 276.3179L300.0 192.52583Z" fill-rule="nonzero"/><path fill="#10919b" d="M388.33304 298.6329C388.08234 298.7624 387.83105 298.89136 387.5792 299.01974L387.5792 276.70474C387.83105 276.57635 388.08234 276.4474 388.33304 276.3179Z" fill-rule="nonzero"/><path fill="#17cfdd" d="M388.33304 276.3179C388.08234 276.4474 387.83105 276.57635 387.5792 276.70474L300.0 192.52583Z" fill-rule="nonzero"/><path fill="#02350d" d="M387.5792 299.01974C387.4113 299.10535 387.24313 299.1907 387.0747 299.2758L387.0747 276.96082C387.24313 276.8757 387.4113 276.79034 387.5792 276.70474Z" fill-rule="nonzero"/><path fill="#034b13" d="M387.5792 276.70474C387.4113 276.79034 387.24313 276.8757 387.0747 276.96082L300.0 192.52583Z" fill-rule="nonzero"/><path fill="#9c4384" d="M387.0747 299.2758C386.90628 299.3609 386.7376 299.44577 386.56866 299.53036L386.56866 277.21536C386.7376 277.13077 386.90628 277.0459 387.0747 276.96082Z" fill-rule="nonzero"/><path fill="#df5fbc" d="M387.0747 276.96082C386.90628 277.0459 386.7376 277.13077 386.56866 277.21536L300.0 192.52583Z" fill-rule="nonzero"/><path fill="#b3710f" d="M386.56866 299.53036C386.39975 299.615 386.23056 299.69934 386.06113 299.78348L386.06113 277.46848C386.23056 277.38434 386.39975 277.3 386.56866 277.21536Z" fill-rule="nonzero"/><path fill="#ffa216" d="M386.56866 277.21536C386.39975 277.3 386.23056 277.38434 386.06113 277.46848L300.0 192.52583Z" fill-rule="nonzero"/><path fill="#8e332b" d="M386.06113 299.78348C385.8917 299.86758 385.72202 299.95145 385.5521 300.03506L385.5521 277.72006C385.72202 277.63644 385.8917 277.55258 386.06113 277.46848Z" fill-rule="nonzero"/><path fill="#cb493e" d="M386.06113 277.46848C385.8917 277.55258 385.72202 277.63644 385.5521 277.72006L300.0 192.52583Z" fill-rule="nonzero"/><path fill="#06780a" d="M385.5521 300.03506C385.38214 300.11868 385.21198 300.20206 385.04153 300.28516L385.04153 277.97018C385.21198 277.88705 385.38214 277.80368 385.5521 277.72006Z" fill-rule="nonzero"/><path fill="#09ab0e" d="M385.5521 277.72006C385.38214 277.80368 385.21198 277.88705 385.04153 277.97018L300.0 192.52583Z" fill-rule="nonzero"/><path fill="#150412" d="M385.04153 300.28516C384.8711 300.3683 384.7004 300.45117 384.52948 300.53378L384.52948 278.21878C384.7004 278.13617 384.8711 278.05328 385.04153 277.97018Z" fill-rule="nonzero"/><path fill="#1e061a" d="M385.04153 277.97018C384.8711 278.05328 384.7004 278.13617 384.52948 278.21878L300.0 192.52583Z" fill-rule="nonzero"/><path fill="#044342" d="M384.52948 300.53378C384.44403 300.57507 384.3585 300.61633 384.27292 300.65753L384.27292 278.34253C384.3585 278.30133 384.44403 278.2601 384.52948 278.21878Z" fill-rule="nonzero"/><path fill="#055f5e" d="M384.52948 278.21878C384.44403 278.2601 384.3585 278.30133 384.27292 278.34253L300.0 192.52583Z" fill-rule="nonzero"/><path fill="#1355a8" d="M384.27292 300.65753C384.18732 300.6987 384.10165 300.73984 384.01596 300.78088L384.01596 278.46588C384.10165 278.42484 384.18732 278.3837 384.27292 278.34253Z" fill-rule="nonzero"/><path fill="#1b79f0" d="M384.27292 278.34253C384.18732 278.3837 384.10165 278.42484 384.01596 278.46588L300.0 192.52583Z" fill-rule="nonzero"/><path fill="#b38e45" d="M384.01596 300.78088C383.9474 300.81372 383.87878 300.84653 383.81012 300.8793L383.81012 278.5643C383.87878 278.53152 383.9474 278.49872 384.01596 278.46588Z" fill-rule="nonzero"/><path fill="#ffcb63" d="M384.01596 278.46588C383.9474 278.49872 383.87878 278.53152 383.81012 278.5643L300.0 192.52583Z" fill-rule="nonzero"/><path fill="#024037" d="M383.81012 300.8793C383.75864 300.90387 383.70712 300.92844 383.6556 300.95297L383.6556 278.63797C383.70712 278.61343 383.75864 278.58887 383.81012 278.5643Z" fill-rule="nonzero"/><path fill="#035b4f" d="M383.81012 278.5643C383.75864 278.58887 383.70712 278.61343 383.6556 278.63797L300.0 192.52583Z" fill-rule="nonzero"/><path fill="#2e910d" d="M383.6556 300.95297C383.61267 300.9734 383.5697 300.99384 383.52673 301.01422L383.52673 278.69925C383.5697 278.67883 383.61267 278.6584 383.6556 278.63797Z" fill-rule="nonzero"/><path fill="#41cf12" d="M383.6556 278.63797C383.61267 278.6584 383.5697 278.67883 383.52673 278.69925L300.0 192.52583Z" fill-rule="nonzero"/><path fill="#192c3c" d="M383.52673 301.01422C383.48376 301.03464 383.44077 301.05502 383.39777 301.0754L383.39777 278.7604C383.44077 278.74005 383.48376 278.71964 383.52673 278.69925Z" fill-rule="nonzero"/><path fill="#233f56" d="M383.52673 278.69925C383.48376 278.71964 383.44077 278.74005 383.39777 278.7604L300.0 192.52583Z" fill-rule="nonzero"/><path fill="#055177" d="M383.39777 301.0754C383.35477 301.0958 383.31174 301.11615 383.2687 301.1365L383.2687 278.8215C383.31174 278.80115 383.35477 278.7808 383.39777 278.7604Z" fill-rule="nonzero"/><path fill="#0773aa" d="M383.39777 278.7604C383.35477 278.7808 383.31174 278.80115 383.2687 278.8215L300.0 192.52583Z" fill-rule="nonzero"/><path fill="#3e6719" d="M383.2687 301.1365C383.22568 301.15686 383.18262 301.1772 383.13956 301.1975L383.13956 278.8825C383.18262 278.86218 383.22568 278.84186 383.2687 278.8215Z" fill-rule="nonzero"/><path fill="#599323" d="M383.2687 278.8215C383.22568 278.84186 383.18262 278.86218 383.13956 278.8825L300.0 192.52583Z" fill-rule="nonzero"/><path fill="#b3ad7b" d="M383.13956 301.1975C383.0965 301.2178 383.05344 301.2381 383.0103 301.2584L383.0103 278.9434C383.05344 278.92313 383.0965 278.9028 383.13956 278.8825Z" fill-rule="nonzero"/><path fill="#fff7af" d="M383.13956 278.8825C383.0965 278.9028 383.05344 278.92313 383.0103 278.9434L300.0 192.52583Z" fill-rule="nonzero"/><path fill="#294e43" d="M383.0103 301.2584C382.96722 301.2787 382.92413 301.29895 382.881 301.3192L382.881 279.0042C382.92413 278.98395 382.96722 278.96368 383.0103 278.9434Z" fill-rule="nonzero"/><path fill="#3b6f60" d="M383.0103 278.9434C382.96722 278.96368 382.92413 278.98395 382.881 279.0042L300.0 192.52583Z" fill-rule="nonzero"/><path fill="#55aa0f" d="M382.881 301.3192C382.8379 301.33945 382.79474 301.35968 382.7516 301.3799L382.7516 279.0649C382.79474 279.04468 382.8379 279.02444 382.881 279.0042Z" fill-rule="nonzero"/><path fill="#79f315" d="M382.881 279.0042C382.8379 279.02444 382.79474 279.04468 382.7516 279.0649L300.0 192.52583Z" fill-rule="nonzero"/><path fill="#1e5367" d="M382.7516 301.3799C382.70844 301.40012 382.66525 301.42032 382.62207 301.44052L382.62207 279.12552C382.66525 279.10535 382.70844 279.0851 382.7516 279.0649Z" fill-rule="nonzero"/><path fill="#2b7793" d="M382.7516 279.0649C382.70844 279.0851 382.66525 279.10535 382.62207 279.12552L300.0 192.52583Z" fill-rule="nonzero"/><path fill="#055fac" d="M382.62207 301.44052C382.59616 301.45264 382.57025 301.46475 382.5443 301.47684L382.5443 279.16183C382.57025 279.14975 382.59616 279.13763 382.62207 279.12552Z" fill-rule="nonzero"/><path fill="#0787f5" d="M382.62207 279.12552C382.59616 279.13763 382.57025 279.14975 382.5443 279.16183L300.0 192.52583Z" fill-rule="nonzero"/><path fill="#687b3d" d="M382.5443 301.47684C382.52274 301.48694 382.50113 301.497 382.4795 301.50708L382.4795 279.19208C382.50113 279.182 382.52274 279.17194 382.5443 279.16183Z" fill-rule="nonzero"/><path fill="#95af57" d="M382.5443 279.16183C382.52274 279.17194 382.50113 279.182 382.4795 279.19208L300.0 192.52583Z" fill-rule="nonzero"/><path fill="#b319b0" d="M382.4795 301.50708C382.46222 301.51514 382.44492 301.52322 382.42764 301.53128L382.42764 279.21628C382.44492 279.20822 382.46222 279.20016 382.4795 279.19208Z" fill-rule="nonzero"/><path fill="#ff23fb" d="M382.4795 279.19208C382.46222 279.20016 382.44492 279.20822 382.42764 279.21628L300.0 192.52583Z" fill-rule="nonzero"/><path fill="#4f5c4f" d="M382.42764 301.53128C382.41034 301.53934 382.39304 301.54736 382.37573 301.55542L382.37573 279.24042C382.39304 279.2324 382.41034 279.22433 382.42764 279.21628Z" fill-rule="nonzero"/><path fill="#718371" d="M382.42764 279.21628C382.41034 279.22433 382.39304 279.2324 382.37573 279.24042L300.0 192.52583Z" fill-rule="nonzero"/><path fill="#7d1211" d="M382.37573 301.55542C381.07846 302.1593 379.76773 302.74884 378.444 303.32388L378.444 281.00888C379.76773 280.43384 381.07846 279.8443 382.37573 279.24042Z" fill-rule="nonzero"/><path fill="#b21918" d="M382.37573 279.24042C381.07846 279.8443 379.76773 280.43384 378.444 281.00888L300.0 192.52583Z" fill-rule="nonzero"/><path fill="#217b92" d="M378.444 303.32388C365.1797 309.08597 350.7024 313.35074 335.54358 315.96158L335.54358 293.64658C350.7024 291.03574 365.1797 286.77097 378.444 281.00888Z" fill-rule="nonzero"/><path fill="#2fafd0" d="M378.444 281.00888C365.1797 286.77097 350.7024 291.03574 335.54358 293.64658L300.0 192.52583Z" fill-rule="nonzero"/><path fill="#066d2d" d="M335.54358 315.96158C323.91238 317.96487 311.97812 318.9775 300.0 318.9775L300.0 296.6625C311.97812 296.6625 323.91238 295.64987 335.54358 293.64658Z" fill-rule="nonzero"/><path fill="#099b40" d="M335.54358 293.64658C323.91238 295.64987 311.97812 296.6625 300.0 296.6625L300.0 192.52583Z" fill-rule="nonzero"/><path fill="#948b61" d="M300.0 318.9775C260.54462 318.9775 222.70525 308.00598 194.80608 288.47656C166.90692 268.94717 151.23334 242.4596 151.23334 214.84084L151.23334 192.52583C151.23334 220.14459 166.90692 246.63216 194.80608 266.1616C222.70525 285.69098 260.54462 296.6625 300.0 296.6625Z" fill-rule="nonzero"/><path fill="#d3c78b" d="M300.0 296.6625C246.85078 296.6625 197.73889 276.81418 171.16429 244.59416C144.58968 212.37418 144.58968 172.67749 171.16429 140.4575C197.73889 108.2375 246.85078 88.38917 300.0 88.38917L300.0 192.52583Z" fill-rule="nonzero"/><path fill="#616161" d="M19.05 202.77583L20.159374 202.68208Q20.284374 203.49458 20.721874 203.90083Q21.175 204.30708 21.815624 204.30708Q22.565624 204.30708 23.096874 203.72896Q23.628124 203.15083 23.628124 202.21333Q23.628124 201.30708 23.1125 200.79146Q22.6125 200.26021 21.784374 200.26021Q21.284374 200.26021 20.8625 200.49458Q20.45625 200.72896 20.221874 201.08833L19.2375 200.96333L20.065624 196.55708L24.346874 196.55708L24.346874 197.55708L20.909374 197.55708L20.45625 199.86958Q21.221874 199.32271 22.065624 199.32271Q23.190624 199.32271 23.95625 200.10396Q24.7375 200.88521 24.7375 202.11958Q24.7375 203.27583 24.065624 204.13521Q23.2375 205.16646 21.815624 205.16646Q20.64375 205.16646 19.89375 204.51021Q19.159374 203.85396 19.05 202.77583ZM26.05 200.79146Q26.05 199.26021 26.3625 198.33833Q26.675 197.40083 27.284374 196.90083Q27.909374 196.40083 28.846874 196.40083Q29.534374 196.40083 30.05 196.68208Q30.58125 196.96333 30.925 197.49458Q31.26875 198.01021 31.45625 198.76021Q31.64375 199.51021 31.64375 200.79146Q31.64375 202.30708 31.33125 203.22896Q31.034374 204.15083 30.409374 204.66646Q29.8 205.16646 28.846874 205.16646Q27.6125 205.16646 26.89375 204.27583Q26.05 203.21333 26.05 200.79146ZM27.128124 200.79146Q27.128124 202.90083 27.628124 203.60396Q28.128124 204.30708 28.846874 204.30708Q29.58125 204.30708 30.065624 203.60396Q30.565624 202.90083 30.565624 200.79146Q30.565624 198.66646 30.065624 197.97896Q29.58125 197.27583 28.83125 197.27583Q28.1125 197.27583 27.675 197.88521Q27.128124 198.66646 27.128124 200.79146ZM33.64375 205.02583L33.64375 203.82271L34.846874 203.82271L34.846874 205.02583L33.64375 205.02583ZM36.05 200.79146Q36.05 199.26021 36.3625 198.33833Q36.675 197.40083 37.284374 196.90083Q37.909374 196.40083 38.846874 196.40083Q39.534374 196.40083 40.05 196.68208Q40.58125 196.96333 40.925 197.49458Q41.26875 198.01021 41.45625 198.76021Q41.64375 199.51021 41.64375 200.79146Q41.64375 202.30708 41.33125 203.22896Q41.034374 204.15083 40.409374 204.66646Q39.8 205.16646 38.846874 205.16646Q37.6125 205.16646 36.89375 204.27583Q36.05 203.21333 36.05 200.79146ZM37.128124 200.79146Q37.128124 202.90083 37.628124 203.60396Q38.128124 204.30708 38.846874 204.30708Q39.58125 204.30708 40.065624 203.60396Q40.565624 202.90083 40.565624 200.79146Q40.565624 198.66646 40.065624 197.97896Q39.58125 197.27583 38.83125 197.27583Q38.1125 197.27583 37.675 197.88521Q37.128124 198.66646 37.128124 200.79146ZM43.253124 198.49458Q43.253124 197.57271 43.70625 196.93208Q44.175 196.29146 45.05 196.29146Q45.8625 196.29146 46.39375 196.86958Q46.925 197.44771 46.925 198.55708Q46.925 199.65083 46.378124 200.24458Q45.846874 200.82271 45.065624 200.82271Q44.284374 200.82271 43.76875 200.24458Q43.253124 199.66646 43.253124 198.49458ZM45.08125 197.01021Q44.690624 197.01021 44.425 197.35396Q44.175 197.69771 44.175 198.60396Q44.175 199.43208 44.425 199.77583Q44.690624 200.10396 45.08125 200.10396Q45.4875 200.10396 45.7375 199.76021Q46.003124 199.41646 46.003124 198.52583Q46.003124 197.68208 45.7375 197.35396Q45.471874 197.01021 45.08125 197.01021ZM45.08125 205.33833L49.784374 196.29146L50.64375 196.29146L45.95625 205.33833L45.08125 205.33833ZM48.8 203.01021Q48.8 202.08833 49.253124 201.44771Q49.721874 200.80708 50.6125 200.80708Q51.425 200.80708 51.95625 201.38521Q52.4875 201.94771 52.4875 203.07271Q52.4875 204.16646 51.940624 204.76021Q51.409374 205.33833 50.6125 205.33833Q49.846874 205.33833 49.315624 204.76021Q48.8 204.18208 48.8 203.01021ZM50.64375 201.52583Q50.2375 201.52583 49.971874 201.86958Q49.721874 202.21333 49.721874 203.11958Q49.721874 203.93208 49.9875 204.27583Q50.253124 204.61958 50.64375 204.61958Q51.034374 204.61958 51.3 204.27583Q51.565624 203.93208 51.565624 203.02583Q51.565624 202.19771 51.3 201.86958Q51.034374 201.52583 50.64375 201.52583Z" fill-rule="nonzero"/><path stroke="#8a8a8a" stroke-width="1.0" stroke-linecap="butt" d="M18.55 192.52583L145.23334 192.52583L158.67166 192.52583" fill-rule="nonzero"/><path fill="#616161" d="M160.67166 192.52583C160.67166 191.42126 159.77623 190.52583 158.67166 190.52583C157.5671 190.52583 156.67166 191.42126 156.67166 192.52583C156.67166 193.6304 157.5671 194.52583 158.67166 194.52583C159.77623 194.52583 160.67166 193.6304 160.67166 192.52583" fill-rule="nonzero"/><path fill="#616161" d="M557.325 82.916664L557.325 80.854164L553.60626 80.854164L553.60626 79.885414L557.52814 74.322914L558.3875 74.322914L558.3875 79.885414L559.54376 79.885414L559.54376 80.854164L558.3875 80.854164L558.3875 82.916664L557.325 82.916664ZM557.325 79.885414L557.325 76.02604L554.6375 79.885414L557.325 79.885414ZM561.54376 82.916664L561.54376 81.71354L562.7469 81.71354L562.7469 82.916664L561.54376 82.916664ZM564.10626 80.93229L565.1219 80.83854Q565.2469 81.55729 565.60626 81.885414Q565.98126 82.197914 566.54376 82.197914Q567.02814 82.197914 567.3875 81.979164Q567.7625 81.74479 567.9969 81.385414Q568.23126 81.010414 568.3875 80.385414Q568.54376 79.74479 568.54376 79.08854Q568.54376 79.010414 568.54376 78.86979Q568.23126 79.36979 567.6844 79.697914Q567.1375 80.010414 566.4969 80.010414Q565.41876 80.010414 564.6844 79.24479Q563.95 78.46354 563.95 77.197914Q563.95 75.885414 564.71564 75.08854Q565.4969 74.291664 566.65314 74.291664Q567.48126 74.291664 568.16876 74.74479Q568.8719 75.197914 569.23126 76.041664Q569.59064 76.86979 569.59064 78.447914Q569.59064 80.08854 569.23126 81.072914Q568.8875 82.041664 568.16876 82.55729Q567.46564 83.05729 566.52814 83.05729Q565.5125 83.05729 564.8719 82.510414Q564.23126 81.947914 564.10626 80.93229ZM568.41876 77.135414Q568.41876 76.229164 567.9344 75.697914Q567.46564 75.166664 566.77814 75.166664Q566.075 75.166664 565.54376 75.74479Q565.02814 76.30729 565.02814 77.229164Q565.02814 78.041664 565.52814 78.55729Q566.02814 79.072914 566.7469 79.072914Q567.48126 79.072914 567.95 78.55729Q568.41876 78.041664 568.41876 77.135414ZM571.15314 76.385414Q571.15314 75.46354 571.60626 74.822914Q572.075 74.18229 572.95 74.18229Q573.7625 74.18229 574.29376 74.760414Q574.825 75.33854 574.825 76.447914Q574.825 77.541664 574.27814 78.135414Q573.7469 78.71354 572.96564 78.71354Q572.1844 78.71354 571.66876 78.135414Q571.15314 77.55729 571.15314 76.385414ZM572.98126 74.90104Q572.59064 74.90104 572.325 75.24479Q572.075 75.58854 572.075 76.49479Q572.075 77.322914 572.325 77.666664Q572.59064 77.99479 572.98126 77.99479Q573.3875 77.99479 573.6375 77.65104Q573.90314 77.30729 573.90314 76.416664Q573.90314 75.572914 573.6375 75.24479Q573.3719 74.90104 572.98126 74.90104ZM572.98126 83.229164L577.6844 74.18229L578.54376 74.18229L573.85626 83.229164L572.98126 83.229164ZM576.7 80.90104Q576.7 79.979164 577.15314 79.33854Q577.6219 78.697914 578.5125 78.697914Q579.325 78.697914 579.85626 79.27604Q580.3875 79.83854 580.3875 80.96354Q580.3875 82.05729 579.84064 82.65104Q579.3094 83.229164 578.5125 83.229164Q577.7469 83.229164 577.21564 82.65104Q576.7 82.072914 576.7 80.90104ZM578.54376 79.416664Q578.1375 79.416664 577.8719 79.760414Q577.6219 80.104164 577.6219 81.010414Q577.6219 81.822914 577.8875 82.166664Q578.15314 82.510414 578.54376 82.510414Q578.9344 82.510414 579.2 82.166664Q579.46564 81.822914 579.46564 80.916664Q579.46564 80.08854 579.2 79.760414Q578.9344 79.416664 578.54376 79.416664Z" fill-rule="nonzero"/><path stroke="#8a8a8a" stroke-width="1.0" stroke-linecap="butt" d="M581.45 70.416664L454.76666 70.416664L321.7231 94.77163" fill-rule="nonzero"/><path fill="#616161" d="M323.7231 94.77163C323.7231 93.66706 322.82767 92.77163 321.7231 92.77163C320.61853 92.77163 319.7231 93.66706 319.7231 94.77163C319.7231 95.8762 320.61853 96.77163 321.7231 96.77163C322.82767 96.77163 323.7231 95.8762 323.7231 94.77163" fill-rule="nonzero"/><path fill="#616161" d="M557.325 113.916664L557.325 111.854164L553.60626 111.854164L553.60626 110.885414L557.52814 105.322914L558.3875 105.322914L558.3875 110.885414L559.54376 110.885414L559.54376 111.854164L558.3875 111.854164L558.3875 113.916664L557.325 113.916664ZM557.325 110.885414L557.325 107.02604L554.6375 110.885414L557.325 110.885414ZM561.54376 113.916664L561.54376 112.71354L562.7469 112.71354L562.7469 113.916664L561.54376 113.916664ZM564.10626 111.93229L565.1219 111.83854Q565.2469 112.55729 565.60626 112.885414Q565.98126 113.197914 566.54376 113.197914Q567.02814 113.197914 567.3875 112.979164Q567.7625 112.74479 567.9969 112.385414Q568.23126 112.010414 568.3875 111.385414Q568.54376 110.74479 568.54376 110.08854Q568.54376 110.010414 568.54376 109.86979Q568.23126 110.36979 567.6844 110.697914Q567.1375 111.010414 566.4969 111.010414Q565.41876 111.010414 564.6844 110.24479Q563.95 109.46354 563.95 108.197914Q563.95 106.885414 564.71564 106.08854Q565.4969 105.291664 566.65314 105.291664Q567.48126 105.291664 568.16876 105.74479Q568.8719 106.197914 569.23126 107.041664Q569.59064 107.86979 569.59064 109.447914Q569.59064 111.08854 569.23126 112.072914Q568.8875 113.041664 568.16876 113.55729Q567.46564 114.05729 566.52814 114.05729Q565.5125 114.05729 564.8719 113.510414Q564.23126 112.947914 564.10626 111.93229ZM568.41876 108.135414Q568.41876 107.229164 567.9344 106.697914Q567.46564 106.166664 566.77814 106.166664Q566.075 106.166664 565.54376 106.74479Q565.02814 107.30729 565.02814 108.229164Q565.02814 109.041664 565.52814 109.55729Q566.02814 110.072914 566.7469 110.072914Q567.48126 110.072914 567.95 109.55729Q568.41876 109.041664 568.41876 108.135414ZM571.15314 107.385414Q571.15314 106.46354 571.60626 105.822914Q572.075 105.18229 572.95 105.18229Q573.7625 105.18229 574.29376 105.760414Q574.825 106.33854 574.825 107.447914Q574.825 108.541664 574.27814 109.135414Q573.7469 109.71354 572.96564 109.71354Q572.1844 109.71354 571.66876 109.135414Q571.15314 108.55729 571.15314 107.385414ZM572.98126 105.90104Q572.59064 105.90104 572.325 106.24479Q572.075 106.58854 572.075 107.49479Q572.075 108.322914 572.325 108.666664Q572.59064 108.99479 572.98126 108.99479Q573.3875 108.99479 573.6375 108.65104Q573.90314 108.30729 573.90314 107.416664Q573.90314 106.572914 573.6375 106.24479Q573.3719 105.90104 572.98126 105.90104ZM572.98126 114.229164L577.6844 105.18229L578.54376 105.18229L573.85626 114.229164L572.98126 114.229164ZM576.7 111.90104Q576.7 110.979164 577.15314 110.33854Q577.6219 109.697914 578.5125 109.697914Q579.325 109.697914 579.85626 110.27604Q580.3875 110.83854 580.3875 111.96354Q580.3875 113.05729 579.84064 113.65104Q579.3094 114.229164 578.5125 114.229164Q577.7469 114.229164 577.21564 113.65104Q576.7 113.072914 576.7 111.90104ZM578.54376 110.416664Q578.1375 110.416664 577.8719 110.760414Q577.6219 111.104164 577.6219 112.010414Q577.6219 112.822914 577.8875 113.166664Q578.15314 113.510414 578.54376 113.510414Q578.9344 113.510414 579.2 113.166664Q579.46564 112.822914 579.46564 111.916664Q579.46564 111.08854 579.2 110.760414Q578.9344 110.416664 578.54376 110.416664Z" fill-rule="nonzero"/><path stroke="#8a8a8a" stroke-width="1.0" stroke-linecap="butt" d="M581.45 101.416664L454.76666 101.416664L363.19656 104.03772" fill-rule="nonzero"/><path fill="#616161" d="M365.19656 104.03772C365.19656 102.93315 364.30115 102.03772 363.19656 102.03772C362.092 102.03772 361.19656 102.93315 361.19656 104.03772C361.19656 105.14229 362.092 106.03772 363.19656 106.03772C364.30115 106.03772 365.19656 105.14229 365.19656 104.03772" fill-rule="nonzero"/><path fill="#616161" d="M557.91876 144.91667L556.8719 144.91667L556.8719 138.19792Q556.48126 138.5573 555.85626 138.9323Q555.2469 139.29167 554.7625 139.46355L554.7625 138.44792Q555.6375 138.02605 556.29376 137.44792Q556.96564 136.85417 557.2469 136.29167L557.91876 136.29167L557.91876 144.91667ZM561.54376 144.91667L561.54376 143.71355L562.7469 143.71355L562.7469 144.91667L561.54376 144.91667ZM569.41876 138.4323L568.3719 138.51042Q568.23126 137.88542 567.98126 137.60417Q567.54376 137.15105 566.91876 137.15105Q566.41876 137.15105 566.02814 137.4323Q565.54376 137.8073 565.2469 138.51042Q564.96564 139.19792 564.95 140.47917Q565.325 139.90105 565.8719 139.6198Q566.4344 139.33855 567.04376 139.33855Q568.09064 139.33855 568.825 140.1198Q569.575 140.90105 569.575 142.1198Q569.575 142.9323 569.21564 143.63542Q568.8719 144.32292 568.2625 144.69792Q567.65314 145.0573 566.8875 145.0573Q565.5594 145.0573 564.73126 144.08855Q563.90314 143.1198 563.90314 140.90105Q563.90314 138.40105 564.825 137.27605Q565.6219 136.29167 566.98126 136.29167Q567.9969 136.29167 568.6375 136.8698Q569.29376 137.4323 569.41876 138.4323ZM565.1219 142.13542Q565.1219 142.6823 565.34064 143.1823Q565.575 143.66667 565.98126 143.9323Q566.40314 144.19792 566.8719 144.19792Q567.52814 144.19792 568.0125 143.66667Q568.4969 143.1198 568.4969 142.19792Q568.4969 141.3073 568.0125 140.79167Q567.54376 140.27605 566.825 140.27605Q566.10626 140.27605 565.60626 140.79167Q565.1219 141.3073 565.1219 142.13542ZM571.15314 138.38542Q571.15314 137.46355 571.60626 136.82292Q572.075 136.1823 572.95 136.1823Q573.7625 136.1823 574.29376 136.76042Q574.825 137.33855 574.825 138.44792Q574.825 139.54167 574.27814 140.13542Q573.7469 140.71355 572.96564 140.71355Q572.1844 140.71355 571.66876 140.13542Q571.15314 139.5573 571.15314 138.38542ZM572.98126 136.90105Q572.59064 136.90105 572.325 137.2448Q572.075 137.58855 572.075 138.4948Q572.075 139.32292 572.325 139.66667Q572.59064 139.9948 572.98126 139.9948Q573.3875 139.9948 573.6375 139.65105Q573.90314 139.3073 573.90314 138.41667Q573.90314 137.57292 573.6375 137.2448Q573.3719 136.90105 572.98126 136.90105ZM572.98126 145.22917L577.6844 136.1823L578.54376 136.1823L573.85626 145.22917L572.98126 145.22917ZM576.7 142.90105Q576.7 141.97917 577.15314 141.33855Q577.6219 140.69792 578.5125 140.69792Q579.325 140.69792 579.85626 141.27605Q580.3875 141.83855 580.3875 142.96355Q580.3875 144.0573 579.84064 144.65105Q579.3094 145.22917 578.5125 145.22917Q577.7469 145.22917 577.21564 144.65105Q576.7 144.07292 576.7 142.90105ZM578.54376 141.41667Q578.1375 141.41667 577.8719 141.76042Q577.6219 142.10417 577.6219 143.01042Q577.6219 143.82292 577.8875 144.16667Q578.15314 144.51042 578.54376 144.51042Q578.9344 144.51042 579.2 144.16667Q579.46564 143.82292 579.46564 142.91667Q579.46564 142.08855 579.2 141.76042Q578.9344 141.41667 578.54376 141.41667Z" fill-rule="nonzero"/><path stroke="#8a8a8a" stroke-width="1.0" stroke-linecap="butt" d="M581.45 132.41667L454.76666 132.41667L396.7793 120.431046" fill-rule="nonzero"/><path fill="#616161" d="M398.7793 120.431046C398.7793 119.32648 397.88385 118.431046 396.7793 118.431046C395.6747 118.431046 394.7793 119.32648 394.7793 120.431046C394.7793 121.535614 395.6747 122.431046 396.7793 122.431046C397.88385 122.431046 398.7793 121.535614 398.7793 120.431046" fill-rule="nonzero"/><path fill="#616161" d="M557.325 175.91667L557.325 173.85417L553.60626 173.85417L553.60626 172.88542L557.52814 167.32292L558.3875 167.32292L558.3875 172.88542L559.54376 172.88542L559.54376 173.85417L558.3875 173.85417L558.3875 175.91667L557.325 175.91667ZM557.325 172.88542L557.325 169.02605L554.6375 172.88542L557.325 172.88542ZM561.54376 175.91667L561.54376 174.71355L562.7469 174.71355L562.7469 175.91667L561.54376 175.91667ZM563.95 171.6823Q563.95 170.15105 564.2625 169.22917Q564.575 168.29167 565.1844 167.79167Q565.8094 167.29167 566.7469 167.29167Q567.4344 167.29167 567.95 167.57292Q568.48126 167.85417 568.825 168.38542Q569.16876 168.90105 569.35626 169.65105Q569.54376 170.40105 569.54376 171.6823Q569.54376 173.19792 569.23126 174.1198Q568.9344 175.04167 568.3094 175.5573Q567.7 176.0573 566.7469 176.0573Q565.5125 176.0573 564.79376 175.16667Q563.95 174.10417 563.95 171.6823ZM565.02814 171.6823Q565.02814 173.79167 565.52814 174.4948Q566.02814 175.19792 566.7469 175.19792Q567.48126 175.19792 567.96564 174.4948Q568.46564 173.79167 568.46564 171.6823Q568.46564 169.5573 567.96564 168.8698Q567.48126 168.16667 566.73126 168.16667Q566.0125 168.16667 565.575 168.77605Q565.02814 169.5573 565.02814 171.6823ZM571.15314 169.38542Q571.15314 168.46355 571.60626 167.82292Q572.075 167.1823 572.95 167.1823Q573.7625 167.1823 574.29376 167.76042Q574.825 168.33855 574.825 169.44792Q574.825 170.54167 574.27814 171.13542Q573.7469 171.71355 572.96564 171.71355Q572.1844 171.71355 571.66876 171.13542Q571.15314 170.5573 571.15314 169.38542ZM572.98126 167.90105Q572.59064 167.90105 572.325 168.2448Q572.075 168.58855 572.075 169.4948Q572.075 170.32292 572.325 170.66667Q572.59064 170.9948 572.98126 170.9948Q573.3875 170.9948 573.6375 170.65105Q573.90314 170.3073 573.90314 169.41667Q573.90314 168.57292 573.6375 168.2448Q573.3719 167.90105 572.98126 167.90105ZM572.98126 176.22917L577.6844 167.1823L578.54376 167.1823L573.85626 176.22917L572.98126 176.22917ZM576.7 173.90105Q576.7 172.97917 577.15314 172.33855Q577.6219 171.69792 578.5125 171.69792Q579.325 171.69792 579.85626 172.27605Q580.3875 172.83855 580.3875 173.96355Q580.3875 175.0573 579.84064 175.65105Q579.3094 176.22917 578.5125 176.22917Q577.7469 176.22917 577.21564 175.65105Q576.7 175.07292 576.7 173.90105ZM578.54376 172.41667Q578.1375 172.41667 577.8719 172.76042Q577.6219 173.10417 577.6219 174.01042Q577.6219 174.82292 577.8875 175.16667Q578.15314 175.51042 578.54376 175.51042Q578.9344 175.51042 579.2 175.16667Q579.46564 174.82292 579.46564 173.91667Q579.46564 173.08855 579.2 172.76042Q578.9344 172.41667 578.54376 172.41667Z" fill-rule="nonzero"/><path stroke="#8a8a8a" stroke-width="1.0" stroke-linecap="butt" d="M581.45 163.41667L454.76666 163.41667L436.92328 168.0187" fill-rule="nonzero"/><path fill="#616161" d="M438.92328 168.0187C438.92328 166.91412 438.02786 166.0187 436.92328 166.0187C435.8187 166.0187 434.92328 166.91412 434.92328 168.0187C434.92328 169.12328 435.8187 170.0187 436.92328 170.0187C438.02786 170.0187 438.92328 169.12328 438.92328 168.0187" fill-rule="nonzero"/><path fill="#616161" d="M557.325 206.91667L557.325 204.85417L553.60626 204.85417L553.60626 203.88542L557.52814 198.32292L558.3875 198.32292L558.3875 203.88542L559.54376 203.88542L559.54376 204.85417L558.3875 204.85417L558.3875 206.91667L557.325 206.91667ZM557.325 203.88542L557.325 200.02605L554.6375 203.88542L557.325 203.88542ZM561.54376 206.91667L561.54376 205.71355L562.7469 205.71355L562.7469 206.91667L561.54376 206.91667ZM563.95 204.65105L565.0125 204.51042Q565.1844 205.40105 565.6219 205.8073Q566.0594 206.19792 566.6844 206.19792Q567.4344 206.19792 567.95 205.6823Q568.46564 205.16667 568.46564 204.40105Q568.46564 203.6823 567.98126 203.21355Q567.5125 202.72917 566.77814 202.72917Q566.48126 202.72917 566.02814 202.85417L566.15314 201.91667Q566.2625 201.9323 566.325 201.9323Q566.9969 201.9323 567.52814 201.58855Q568.075 201.22917 568.075 200.4948Q568.075 199.91667 567.6844 199.54167Q567.29376 199.15105 566.66876 199.15105Q566.0594 199.15105 565.6375 199.54167Q565.23126 199.9323 565.1219 200.69792L564.0594 200.51042Q564.2469 199.46355 564.9344 198.88542Q565.6219 198.29167 566.6375 198.29167Q567.34064 198.29167 567.9344 198.60417Q568.52814 198.90105 568.84064 199.41667Q569.15314 199.9323 569.15314 200.52605Q569.15314 201.07292 568.85626 201.54167Q568.5594 201.9948 567.98126 202.26042Q568.73126 202.4323 569.15314 202.9948Q569.575 203.54167 569.575 204.38542Q569.575 205.51042 568.7469 206.29167Q567.9344 207.07292 566.6844 207.07292Q565.5594 207.07292 564.8094 206.40105Q564.0594 205.71355 563.95 204.65105ZM571.15314 200.38542Q571.15314 199.46355 571.60626 198.82292Q572.075 198.1823 572.95 198.1823Q573.7625 198.1823 574.29376 198.76042Q574.825 199.33855 574.825 200.44792Q574.825 201.54167 574.27814 202.13542Q573.7469 202.71355 572.96564 202.71355Q572.1844 202.71355 571.66876 202.13542Q571.15314 201.5573 571.15314 200.38542ZM572.98126 198.90105Q572.59064 198.90105 572.325 199.2448Q572.075 199.58855 572.075 200.4948Q572.075 201.32292 572.325 201.66667Q572.59064 201.9948 572.98126 201.9948Q573.3875 201.9948 573.6375 201.65105Q573.90314 201.3073 573.90314 200.41667Q573.90314 199.57292 573.6375 199.2448Q573.3719 198.90105 572.98126 198.90105ZM572.98126 207.22917L577.6844 198.1823L578.54376 198.1823L573.85626 207.22917L572.98126 207.22917ZM576.7 204.90105Q576.7 203.97917 577.15314 203.33855Q577.6219 202.69792 578.5125 202.69792Q579.325 202.69792 579.85626 203.27605Q580.3875 203.83855 580.3875 204.96355Q580.3875 206.0573 579.84064 206.65105Q579.3094 207.22917 578.5125 207.22917Q577.7469 207.22917 577.21564 206.65105Q576.7 206.07292 576.7 204.90105ZM578.54376 203.41667Q578.1375 203.41667 577.8719 203.76042Q577.6219 204.10417 577.6219 205.01042Q577.6219 205.82292 577.8875 206.16667Q578.15314 206.51042 578.54376 206.51042Q578.9344 206.51042 579.2 206.16667Q579.46564 205.82292 579.46564 204.91667Q579.46564 204.08855 579.2 203.76042Q578.9344 203.41667 578.54376 203.41667Z" fill-rule="nonzero"/><path stroke="#8a8a8a" stroke-width="1.0" stroke-linecap="butt" d="M581.45 194.41667L454.76666 194.41667L441.322 193.4631" fill-rule="nonzero"/><path fill="#616161" d="M443.322 193.4631C443.322 192.35854 442.42657 191.4631 441.322 191.4631C440.2174 191.4631 439.322 192.35854 439.322 193.4631C439.322 194.56767 440.2174 195.4631 441.322 195.4631C442.42657 195.4631 443.322 194.56767 443.322 193.4631" fill-rule="nonzero"/><path fill="#616161" d="M559.4969 236.90105L559.4969 237.91667L553.8094 237.91667Q553.8094 237.54167 553.9344 237.1823Q554.15314 236.60417 554.6219 236.04167Q555.10626 235.47917 556.0125 234.7448Q557.41876 233.58855 557.90314 232.91667Q558.40314 232.2448 558.40314 231.65105Q558.40314 231.02605 557.95 230.60417Q557.4969 230.16667 556.77814 230.16667Q556.0125 230.16667 555.5594 230.6198Q555.10626 231.07292 555.09064 231.88542L554.0125 231.77605Q554.1219 230.5573 554.84064 229.9323Q555.575 229.29167 556.8094 229.29167Q558.04376 229.29167 558.7625 229.97917Q559.48126 230.66667 559.48126 231.6823Q559.48126 232.19792 559.2625 232.69792Q559.0594 233.1823 558.5594 233.7448Q558.075 234.29167 556.95 235.2448Q555.9969 236.04167 555.71564 236.33855Q555.45 236.6198 555.27814 236.90105L559.4969 236.90105ZM561.54376 237.91667L561.54376 236.71355L562.7469 236.71355L562.7469 237.91667L561.54376 237.91667ZM563.95 235.66667L565.0594 235.57292Q565.1844 236.38542 565.6219 236.79167Q566.075 237.19792 566.71564 237.19792Q567.46564 237.19792 567.9969 236.6198Q568.52814 236.04167 568.52814 235.10417Q568.52814 234.19792 568.0125 233.6823Q567.5125 233.15105 566.6844 233.15105Q566.1844 233.15105 565.7625 233.38542Q565.35626 233.6198 565.1219 233.97917L564.1375 233.85417L564.96564 229.44792L569.2469 229.44792L569.2469 230.44792L565.8094 230.44792L565.35626 232.76042Q566.1219 232.21355 566.96564 232.21355Q568.09064 232.21355 568.85626 232.9948Q569.6375 233.77605 569.6375 235.01042Q569.6375 236.16667 568.96564 237.02605Q568.1375 238.0573 566.71564 238.0573Q565.54376 238.0573 564.79376 237.40105Q564.0594 236.7448 563.95 235.66667ZM571.15314 231.38542Q571.15314 230.46355 571.60626 229.82292Q572.075 229.1823 572.95 229.1823Q573.7625 229.1823 574.29376 229.76042Q574.825 230.33855 574.825 231.44792Q574.825 232.54167 574.27814 233.13542Q573.7469 233.71355 572.96564 233.71355Q572.1844 233.71355 571.66876 233.13542Q571.15314 232.5573 571.15314 231.38542ZM572.98126 229.90105Q572.59064 229.90105 572.325 230.2448Q572.075 230.58855 572.075 231.4948Q572.075 232.32292 572.325 232.66667Q572.59064 232.9948 572.98126 232.9948Q573.3875 232.9948 573.6375 232.65105Q573.90314 232.3073 573.90314 231.41667Q573.90314 230.57292 573.6375 230.2448Q573.3719 229.90105 572.98126 229.90105ZM572.98126 238.22917L577.6844 229.1823L578.54376 229.1823L573.85626 238.22917L572.98126 238.22917ZM576.7 235.90105Q576.7 234.97917 577.15314 234.33855Q577.6219 233.69792 578.5125 233.69792Q579.325 233.69792 579.85626 234.27605Q580.3875 234.83855 580.3875 235.96355Q580.3875 237.0573 579.84064 237.65105Q579.3094 238.22917 578.5125 238.22917Q577.7469 238.22917 577.21564 237.65105Q576.7 237.07292 576.7 235.90105ZM578.54376 234.41667Q578.1375 234.41667 577.8719 234.76042Q577.6219 235.10417 577.6219 236.01042Q577.6219 236.82292 577.8875 237.16667Q578.15314 237.51042 578.54376 237.51042Q578.9344 237.51042 579.2 237.16667Q579.46564 236.82292 579.46564 235.91667Q579.46564 235.08855 579.2 234.76042Q578.9344 234.41667 578.54376 234.41667Z" fill-rule="nonzero"/><path stroke="#8a8a8a" stroke-width="1.0" stroke-linecap="butt" d="M581.45 225.41667L454.76666 225.41667L420.8168 243.85545" fill-rule="nonzero"/><path fill="#616161" d="M422.8168 243.85545C422.8168 242.75089 421.92136 241.85545 420.8168 241.85545C419.71222 241.85545 418.8168 242.75089 418.8168 243.85545C418.8168 244.96002 419.71222 245.85545 420.8168 245.85545C421.92136 245.85545 422.8168 244.96002 422.8168 243.85545" fill-rule="nonzero"/><path fill="#616161" d="M559.4969 267.90103L559.4969 268.91666L553.8094 268.91666Q553.8094 268.54166 553.9344 268.18228Q554.15314 267.60416 554.6219 267.04166Q555.10626 266.47916 556.0125 265.74478Q557.41876 264.58853 557.90314 263.91666Q558.40314 263.24478 558.40314 262.65103Q558.40314 262.02603 557.95 261.60416Q557.4969 261.16666 556.77814 261.16666Q556.0125 261.16666 555.5594 261.61978Q555.10626 262.0729 555.09064 262.8854L554.0125 262.77603Q554.1219 261.55728 554.84064 260.93228Q555.575 260.29166 556.8094 260.29166Q558.04376 260.29166 558.7625 260.97916Q559.48126 261.66666 559.48126 262.68228Q559.48126 263.1979 559.2625 263.6979Q559.0594 264.18228 558.5594 264.74478Q558.075 265.29166 556.95 266.24478Q555.9969 267.04166 555.71564 267.33853Q555.45 267.61978 555.27814 267.90103L559.4969 267.90103ZM561.54376 268.91666L561.54376 267.71353L562.7469 267.71353L562.7469 268.91666L561.54376 268.91666ZM563.95 266.66666L565.0594 266.5729Q565.1844 267.3854 565.6219 267.79166Q566.075 268.1979 566.71564 268.1979Q567.46564 268.1979 567.9969 267.61978Q568.52814 267.04166 568.52814 266.10416Q568.52814 265.1979 568.0125 264.68228Q567.5125 264.15103 566.6844 264.15103Q566.1844 264.15103 565.7625 264.3854Q565.35626 264.61978 565.1219 264.97916L564.1375 264.85416L564.96564 260.4479L569.2469 260.4479L569.2469 261.4479L565.8094 261.4479L565.35626 263.7604Q566.1219 263.21353 566.96564 263.21353Q568.09064 263.21353 568.85626 263.99478Q569.6375 264.77603 569.6375 266.0104Q569.6375 267.16666 568.96564 268.02603Q568.1375 269.05728 566.71564 269.05728Q565.54376 269.05728 564.79376 268.40103Q564.0594 267.74478 563.95 266.66666ZM571.15314 262.3854Q571.15314 261.46353 571.60626 260.8229Q572.075 260.18228 572.95 260.18228Q573.7625 260.18228 574.29376 260.7604Q574.825 261.33853 574.825 262.4479Q574.825 263.54166 574.27814 264.1354Q573.7469 264.71353 572.96564 264.71353Q572.1844 264.71353 571.66876 264.1354Q571.15314 263.55728 571.15314 262.3854ZM572.98126 260.90103Q572.59064 260.90103 572.325 261.24478Q572.075 261.58853 572.075 262.49478Q572.075 263.3229 572.325 263.66666Q572.59064 263.99478 572.98126 263.99478Q573.3875 263.99478 573.6375 263.65103Q573.90314 263.30728 573.90314 262.41666Q573.90314 261.5729 573.6375 261.24478Q573.3719 260.90103 572.98126 260.90103ZM572.98126 269.22916L577.6844 260.18228L578.54376 260.18228L573.85626 269.22916L572.98126 269.22916ZM576.7 266.90103Q576.7 265.97916 577.15314 265.33853Q577.6219 264.6979 578.5125 264.6979Q579.325 264.6979 579.85626 265.27603Q580.3875 265.83853 580.3875 266.96353Q580.3875 268.05728 579.84064 268.65103Q579.3094 269.22916 578.5125 269.22916Q577.7469 269.22916 577.21564 268.65103Q576.7 268.0729 576.7 266.90103ZM578.54376 265.41666Q578.1375 265.41666 577.8719 265.7604Q577.6219 266.10416 577.6219 267.0104Q577.6219 267.8229 577.8875 268.16666Q578.15314 268.5104 578.54376 268.5104Q578.9344 268.5104 579.2 268.16666Q579.46564 267.8229 579.46564 266.91666Q579.46564 266.08853 579.2 265.7604Q578.9344 265.41666 578.54376 265.41666Z" fill-rule="nonzero"/><path stroke="#8a8a8a" stroke-width="1.0" stroke-linecap="butt" d="M581.45 256.41666L454.76666 256.41666L407.8583 256.45343" fill-rule="nonzero"/><path fill="#616161" d="M409.8583 256.45343C409.8583 255.34888 408.96286 254.45345 407.8583 254.45345C406.75372 254.45345 405.8583 255.34888 405.8583 256.45343C405.8583 257.558 406.75372 258.45343 407.8583 258.45343C408.96286 258.45343 409.8583 257.558 409.8583 256.45343" fill-rule="nonzero"/><path fill="#616161" d="M553.95 297.66666L555.0594 297.5729Q555.1844 298.3854 555.6219 298.79166Q556.075 299.1979 556.71564 299.1979Q557.46564 299.1979 557.9969 298.61978Q558.52814 298.04166 558.52814 297.10416Q558.52814 296.1979 558.0125 295.68228Q557.5125 295.15103 556.6844 295.15103Q556.1844 295.15103 555.7625 295.3854Q555.35626 295.61978 555.1219 295.97916L554.1375 295.85416L554.96564 291.4479L559.2469 291.4479L559.2469 292.4479L555.8094 292.4479L555.35626 294.7604Q556.1219 294.21353 556.96564 294.21353Q558.09064 294.21353 558.85626 294.99478Q559.6375 295.77603 559.6375 297.0104Q559.6375 298.16666 558.96564 299.02603Q558.1375 300.05728 556.71564 300.05728Q555.54376 300.05728 554.79376 299.40103Q554.0594 298.74478 553.95 297.66666ZM561.54376 299.91666L561.54376 298.71353L562.7469 298.71353L562.7469 299.91666L561.54376 299.91666ZM563.95 295.68228Q563.95 294.15103 564.2625 293.22916Q564.575 292.29166 565.1844 291.79166Q565.8094 291.29166 566.7469 291.29166Q567.4344 291.29166 567.95 291.5729Q568.48126 291.85416 568.825 292.3854Q569.16876 292.90103 569.35626 293.65103Q569.54376 294.40103 569.54376 295.68228Q569.54376 297.1979 569.23126 298.11978Q568.9344 299.04166 568.3094 299.55728Q567.7 300.05728 566.7469 300.05728Q565.5125 300.05728 564.79376 299.16666Q563.95 298.10416 563.95 295.68228ZM565.02814 295.68228Q565.02814 297.79166 565.52814 298.49478Q566.02814 299.1979 566.7469 299.1979Q567.48126 299.1979 567.96564 298.49478Q568.46564 297.79166 568.46564 295.68228Q568.46564 293.55728 567.96564 292.86978Q567.48126 292.16666 566.73126 292.16666Q566.0125 292.16666 565.575 292.77603Q565.02814 293.55728 565.02814 295.68228ZM571.15314 293.3854Q571.15314 292.46353 571.60626 291.8229Q572.075 291.18228 572.95 291.18228Q573.7625 291.18228 574.29376 291.7604Q574.825 292.33853 574.825 293.4479Q574.825 294.54166 574.27814 295.1354Q573.7469 295.71353 572.96564 295.71353Q572.1844 295.71353 571.66876 295.1354Q571.15314 294.55728 571.15314 293.3854ZM572.98126 291.90103Q572.59064 291.90103 572.325 292.24478Q572.075 292.58853 572.075 293.49478Q572.075 294.3229 572.325 294.66666Q572.59064 294.99478 572.98126 294.99478Q573.3875 294.99478 573.6375 294.65103Q573.90314 294.30728 573.90314 293.41666Q573.90314 292.5729 573.6375 292.24478Q573.3719 291.90103 572.98126 291.90103ZM572.98126 300.22916L577.6844 291.18228L578.54376 291.18228L573.85626 300.22916L572.98126 300.22916ZM576.7 297.90103Q576.7 296.97916 577.15314 296.33853Q577.6219 295.6979 578.5125 295.6979Q579.325 295.6979 579.85626 296.27603Q580.3875 296.83853 580.3875 297.96353Q580.3875 299.05728 579.84064 299.65103Q579.3094 300.22916 578.5125 300.22916Q577.7469 300.22916 577.21564 299.65103Q576.7 299.0729 576.7 297.90103ZM578.54376 296.41666Q578.1375 296.41666 577.8719 296.7604Q577.6219 297.10416 577.6219 298.0104Q577.6219 298.8229 577.8875 299.16666Q578.15314 299.5104 578.54376 299.5104Q578.9344 299.5104 579.2 299.16666Q579.46564 298.8229 579.46564 297.91666Q579.46564 297.08853 579.2 296.7604Q578.9344 296.41666 578.54376 296.41666Z" fill-rule="nonzero"/><path stroke="#8a8a8a" stroke-width="1.0" stroke-linecap="butt" d="M581.45 287.41666L454.76666 287.41666L354.819 283.71027" fill-rule="nonzero"/><path fill="#616161" d="M356.819 283.71027C356.819 282.6057 355.92358 281.71027 354.819 281.71027C353.71445 281.71027 352.819 282.6057 352.819 283.71027C352.819 284.81485 353.71445 285.71027 354.819 285.71027C355.92358 285.71027 356.819 284.81485 356.819 283.71027" fill-rule="nonzero"/><path fill="#616161" d="M553.95 328.65103L555.0125 328.5104Q555.1844 329.40103 555.6219 329.80728Q556.0594 330.1979 556.6844 330.1979Q557.4344 330.1979 557.95 329.68228Q558.46564 329.16666 558.46564 328.40103Q558.46564 327.68228 557.98126 327.21353Q557.5125 326.72916 556.77814 326.72916Q556.48126 326.72916 556.02814 326.85416L556.15314 325.91666Q556.2625 325.93228 556.325 325.93228Q556.9969 325.93228 557.52814 325.58853Q558.075 325.22916 558.075 324.49478Q558.075 323.91666 557.6844 323.54166Q557.29376 323.15103 556.66876 323.15103Q556.0594 323.15103 555.6375 323.54166Q555.23126 323.93228 555.1219 324.6979L554.0594 324.5104Q554.2469 323.46353 554.9344 322.8854Q555.6219 322.29166 556.6375 322.29166Q557.34064 322.29166 557.9344 322.60416Q558.52814 322.90103 558.84064 323.41666Q559.15314 323.93228 559.15314 324.52603Q559.15314 325.0729 558.85626 325.54166Q558.5594 325.99478 557.98126 326.2604Q558.73126 326.43228 559.15314 326.99478Q559.575 327.54166 559.575 328.3854Q559.575 329.5104 558.7469 330.29166Q557.9344 331.0729 556.6844 331.0729Q555.5594 331.0729 554.8094 330.40103Q554.0594 329.71353 553.95 328.65103ZM561.54376 330.91666L561.54376 329.71353L562.7469 329.71353L562.7469 330.91666L561.54376 330.91666ZM565.575 326.2604Q564.91876 326.0104 564.59064 325.5729Q564.27814 325.11978 564.27814 324.5104Q564.27814 323.5729 564.95 322.93228Q565.6375 322.29166 566.7469 322.29166Q567.8719 322.29166 568.5594 322.9479Q569.2469 323.60416 569.2469 324.54166Q569.2469 325.1354 568.9344 325.5729Q568.6219 326.0104 567.98126 326.2604Q568.77814 326.5104 569.1844 327.08853Q569.59064 327.66666 569.59064 328.46353Q569.59064 329.55728 568.8094 330.30728Q568.04376 331.05728 566.7625 331.05728Q565.4969 331.05728 564.71564 330.30728Q563.9344 329.55728 563.9344 328.43228Q563.9344 327.58853 564.35626 327.02603Q564.79376 326.46353 565.575 326.2604ZM565.35626 324.46353Q565.35626 325.0729 565.7469 325.46353Q566.15314 325.85416 566.77814 325.85416Q567.3875 325.85416 567.77814 325.47916Q568.16876 325.08853 568.16876 324.52603Q568.16876 323.9479 567.7625 323.55728Q567.35626 323.15103 566.7625 323.15103Q566.15314 323.15103 565.7469 323.54166Q565.35626 323.93228 565.35626 324.46353ZM565.02814 328.43228Q565.02814 328.8854 565.23126 329.30728Q565.45 329.72916 565.8719 329.96353Q566.29376 330.1979 566.77814 330.1979Q567.52814 330.1979 568.0125 329.71353Q568.5125 329.22916 568.5125 328.47916Q568.5125 327.71353 568.0125 327.21353Q567.5125 326.71353 566.7469 326.71353Q565.9969 326.71353 565.5125 327.21353Q565.02814 327.6979 565.02814 328.43228ZM571.15314 324.3854Q571.15314 323.46353 571.60626 322.8229Q572.075 322.18228 572.95 322.18228Q573.7625 322.18228 574.29376 322.7604Q574.825 323.33853 574.825 324.4479Q574.825 325.54166 574.27814 326.1354Q573.7469 326.71353 572.96564 326.71353Q572.1844 326.71353 571.66876 326.1354Q571.15314 325.55728 571.15314 324.3854ZM572.98126 322.90103Q572.59064 322.90103 572.325 323.24478Q572.075 323.58853 572.075 324.49478Q572.075 325.3229 572.325 325.66666Q572.59064 325.99478 572.98126 325.99478Q573.3875 325.99478 573.6375 325.65103Q573.90314 325.30728 573.90314 324.41666Q573.90314 323.5729 573.6375 323.24478Q573.3719 322.90103 572.98126 322.90103ZM572.98126 331.22916L577.6844 322.18228L578.54376 322.18228L573.85626 331.22916L572.98126 331.22916ZM576.7 328.90103Q576.7 327.97916 577.15314 327.33853Q577.6219 326.6979 578.5125 326.6979Q579.325 326.6979 579.85626 327.27603Q580.3875 327.83853 580.3875 328.96353Q580.3875 330.05728 579.84064 330.65103Q579.3094 331.22916 578.5125 331.22916Q577.7469 331.22916 577.21564 330.65103Q576.7 330.0729 576.7 328.90103ZM578.54376 327.41666Q578.1375 327.41666 577.8719 327.7604Q577.6219 328.10416 577.6219 329.0104Q577.6219 329.8229 577.8875 330.16666Q578.15314 330.5104 578.54376 330.5104Q578.9344 330.5104 579.2 330.16666Q579.46564 329.8229 579.46564 328.91666Q579.46564 328.08853 579.2 327.7604Q578.9344 327.41666 578.54376 327.41666Z" fill-rule="nonzero"/><path stroke="#8a8a8a" stroke-width="1.0" stroke-linecap="butt" d="M581.45 318.41666L454.76666 318.41666L317.00677 290.7368" fill-rule="nonzero"/><path fill="#616161" d="M319.00677 290.7368C319.00677 289.6322 318.11136 288.7368 317.00677 288.7368C315.90222 288.7368 315.00677 289.6322 315.00677 290.7368C315.00677 291.84134 315.90222 292.7368 317.00677 292.7368C318.11136 292.7368 319.00677 291.84134 319.00677 290.7368" fill-rule="nonzero"/><path fill="#757575" d="M218.07812 37.55L218.07812 23.2375L224.42188 23.2375Q226.32812 23.2375 227.32812 23.628124Q228.32812 24.003124 228.92188 24.9875Q229.51562 25.95625 229.51562 27.14375Q229.51562 28.659374 228.53125 29.70625Q227.54688 30.753124 225.48438 31.034374Q226.23438 31.39375 226.625 31.753124Q227.45312 32.503124 228.20312 33.659374L230.6875 37.55L228.3125 37.55L226.40625 34.565624Q225.57812 33.284374 225.04688 32.596874Q224.51562 31.909374 224.07812 31.64375Q223.65625 31.3625 223.21875 31.253124Q222.89062 31.190624 222.17188 31.190624L219.96875 31.190624L219.96875 37.55L218.07812 37.55ZM219.96875 29.55L224.04688 29.55Q225.34375 29.55 226.0625 29.284374Q226.79688 29.01875 227.17188 28.425Q227.5625 27.83125 227.5625 27.14375Q227.5625 26.128124 226.82812 25.471874Q226.09375 24.815624 224.5 24.815624L219.96875 24.815624L219.96875 29.55ZM230.46875 37.55L235.96875 23.2375L238.01562 23.2375L243.875 37.55L241.71875 37.55L240.04688 33.20625L234.0625 33.20625L232.48438 37.55L230.46875 37.55ZM234.60938 31.675L239.45312 31.675L237.96875 27.70625Q237.28125 25.89375 236.95312 24.7375Q236.67188 26.1125 236.17188 27.471874L234.60938 31.675ZM245.04688 37.55L245.04688 23.2375L249.96875 23.2375Q251.64062 23.2375 252.53125 23.440624Q253.75 23.721874 254.625 24.45625Q255.75 25.425 256.3125 26.909374Q256.875 28.39375 256.875 30.315624Q256.875 31.940624 256.5 33.20625Q256.125 34.45625 255.51562 35.284374Q254.92188 36.1125 254.21875 36.596874Q253.51562 37.065624 252.51562 37.315624Q251.51562 37.55 250.20312 37.55L245.04688 37.55ZM246.9375 35.8625L250.0 35.8625Q251.40625 35.8625 252.20312 35.596874Q253.01562 35.33125 253.5 34.846874Q254.17188 34.175 254.54688 33.05Q254.92188 31.909374 254.92188 30.284374Q254.92188 28.034374 254.1875 26.83125Q253.45312 25.628124 252.39062 25.221874Q251.64062 24.925 249.95312 24.925L246.9375 24.925L246.9375 35.8625ZM264.65625 26.675Q264.65625 25.14375 265.42188 24.065624Q266.20312 22.9875 267.67188 22.9875Q269.01562 22.9875 269.89062 23.95625Q270.78125 24.909374 270.78125 26.784374Q270.78125 28.596874 269.89062 29.58125Q269.0 30.55 267.6875 30.55Q266.39062 30.55 265.51562 29.596874Q264.65625 28.628124 264.65625 26.675ZM267.71875 24.20625Q267.0625 24.20625 266.625 24.76875Q266.20312 25.33125 266.20312 26.846874Q266.20312 28.221874 266.64062 28.784374Q267.07812 29.346874 267.71875 29.346874Q268.39062 29.346874 268.8125 28.784374Q269.25 28.20625 269.25 26.70625Q269.25 25.315624 268.8125 24.76875Q268.375 24.20625 267.71875 24.20625ZM267.73438 38.08125L275.5625 22.9875L276.98438 22.9875L269.1875 38.08125L267.73438 38.08125ZM273.92188 34.190624Q273.92188 32.64375 274.6875 31.58125Q275.46875 30.503124 276.9375 30.503124Q278.28125 30.503124 279.15625 31.471874Q280.04688 32.425 280.04688 34.3Q280.04688 36.1125 279.15625 37.096874Q278.26562 38.08125 276.95312 38.08125Q275.65625 38.08125 274.78125 37.1125Q273.92188 36.128124 273.92188 34.190624ZM276.98438 31.721874Q276.32812 31.721874 275.89062 32.284374Q275.45312 32.846874 275.45312 34.3625Q275.45312 35.7375 275.89062 36.3Q276.32812 36.8625 276.98438 36.8625Q277.65625 36.8625 278.07812 36.3Q278.51562 35.7375 278.51562 34.221874Q278.51562 32.846874 278.07812 32.284374Q277.64062 31.721874 276.98438 31.721874ZM295.54688 37.55L295.54688 36.2375Q294.5625 37.784374 292.64062 37.784374Q291.40625 37.784374 290.35938 37.096874Q289.32812 36.409374 288.75 35.190624Q288.1875 33.971874 288.1875 32.378124Q288.1875 30.815624 288.70312 29.55Q289.21875 28.284374 290.25 27.6125Q291.29688 26.940624 292.5625 26.940624Q293.5 26.940624 294.23438 27.346874Q294.96875 27.7375 295.4375 28.3625L295.4375 23.2375L297.17188 23.2375L297.17188 37.55L295.54688 37.55ZM289.98438 32.378124Q289.98438 34.3625 290.82812 35.346874Q291.67188 36.33125 292.8125 36.33125Q293.96875 36.33125 294.76562 35.39375Q295.57812 34.45625 295.57812 32.51875Q295.57812 30.39375 294.75 29.39375Q293.9375 28.39375 292.73438 28.39375Q291.5625 28.39375 290.76562 29.3625Q289.98438 30.315624 289.98438 32.378124ZM299.82812 25.253124L299.82812 23.2375L301.59375 23.2375L301.59375 25.253124L299.82812 25.253124ZM299.82812 37.55L299.82812 27.175L301.59375 27.175L301.59375 37.55L299.82812 37.55ZM303.10938 34.45625L304.85938 34.175Q305.0 35.221874 305.67188 35.784374Q306.34375 36.33125 307.54688 36.33125Q308.75 36.33125 309.32812 35.846874Q309.92188 35.346874 309.92188 34.690624Q309.92188 34.096874 309.40625 33.753124Q309.04688 33.51875 307.60938 33.159374Q305.67188 32.659374 304.92188 32.315624Q304.1875 31.95625 303.79688 31.33125Q303.40625 30.690624 303.40625 29.925Q303.40625 29.2375 303.71875 28.64375Q304.04688 28.05 304.59375 27.659374Q305.0 27.3625 305.70312 27.159374Q306.42188 26.940624 307.23438 26.940624Q308.45312 26.940624 309.375 27.3Q310.29688 27.64375 310.73438 28.253124Q311.17188 28.846874 311.34375 29.846874L309.625 30.08125Q309.5 29.284374 308.9375 28.846874Q308.375 28.39375 307.35938 28.39375Q306.14062 28.39375 305.625 28.8Q305.10938 29.190624 305.10938 29.721874Q305.10938 30.065624 305.32812 30.346874Q305.53125 30.628124 306.0 30.815624Q306.26562 30.909374 307.54688 31.253124Q309.42188 31.753124 310.15625 32.08125Q310.89062 32.39375 311.3125 33.003124Q311.73438 33.596874 311.73438 34.503124Q311.73438 35.378124 311.21875 36.159374Q310.70312 36.940624 309.73438 37.3625Q308.76562 37.784374 307.54688 37.784374Q305.53125 37.784374 304.46875 36.940624Q303.40625 36.096874 303.10938 34.45625ZM317.65625 35.971874L317.90625 37.534374Q317.17188 37.690624 316.57812 37.690624Q315.625 37.690624 315.09375 37.39375Q314.57812 37.08125 314.35938 36.596874Q314.14062 36.096874 314.14062 34.51875L314.14062 28.55L312.85938 28.55L312.85938 27.175L314.14062 27.175L314.14062 24.6125L315.89062 23.55L315.89062 27.175L317.65625 27.175L317.65625 28.55L315.89062 28.55L315.89062 34.6125Q315.89062 35.3625 315.98438 35.58125Q316.07812 35.784374 316.28125 35.925Q316.5 36.05 316.89062 36.05Q317.17188 36.05 317.65625 35.971874ZM319.79688 37.55L319.79688 27.175L321.375 27.175L321.375 28.753124Q321.98438 27.64375 322.5 27.3Q323.01562 26.940624 323.625 26.940624Q324.51562 26.940624 325.4375 27.503124L324.82812 29.14375Q324.1875 28.753124 323.54688 28.753124Q322.96875 28.753124 322.5 29.1125Q322.04688 29.45625 321.84375 30.065624Q321.5625 31.003124 321.5625 32.1125L321.5625 37.55L319.79688 37.55ZM326.82812 25.253124L326.82812 23.2375L328.59375 23.2375L328.59375 25.253124L326.82812 25.253124ZM326.82812 37.55L326.82812 27.175L328.59375 27.175L328.59375 37.55L326.82812 37.55ZM332.4375 37.55L330.8125 37.55L330.8125 23.2375L332.5625 23.2375L332.5625 28.346874Q333.6875 26.940624 335.40625 26.940624Q336.35938 26.940624 337.21875 27.33125Q338.07812 27.721874 338.625 28.425Q339.17188 29.1125 339.48438 30.096874Q339.79688 31.08125 339.79688 32.20625Q339.79688 34.878124 338.48438 36.33125Q337.17188 37.784374 335.32812 37.784374Q333.48438 37.784374 332.4375 36.253124L332.4375 37.55ZM332.42188 32.284374Q332.42188 34.14375 332.92188 34.9875Q333.76562 36.33125 335.17188 36.33125Q336.32812 36.33125 337.15625 35.33125Q338.0 34.33125 338.0 32.346874Q338.0 30.315624 337.1875 29.3625Q336.39062 28.39375 335.25 28.39375Q334.09375 28.39375 333.25 29.39375Q332.42188 30.39375 332.42188 32.284374ZM348.60938 37.55L348.60938 36.01875Q347.40625 37.784374 345.32812 37.784374Q344.40625 37.784374 343.60938 37.440624Q342.8125 37.08125 342.42188 36.55Q342.04688 36.01875 341.89062 35.2375Q341.78125 34.721874 341.78125 33.596874L341.78125 27.175L343.53125 27.175L343.53125 32.925Q343.53125 34.3 343.64062 34.784374Q343.8125 35.471874 344.34375 35.878124Q344.89062 36.26875 345.67188 36.26875Q346.46875 36.26875 347.15625 35.8625Q347.85938 35.45625 348.14062 34.76875Q348.4375 34.065624 348.4375 32.7375L348.4375 27.175L350.1875 27.175L350.1875 37.55L348.60938 37.55ZM356.65625 35.971874L356.90625 37.534374Q356.17188 37.690624 355.57812 37.690624Q354.625 37.690624 354.09375 37.39375Q353.57812 37.08125 353.35938 36.596874Q353.14062 36.096874 353.14062 34.51875L353.14062 28.55L351.85938 28.55L351.85938 27.175L353.14062 27.175L353.14062 24.6125L354.89062 23.55L354.89062 27.175L356.65625 27.175L356.65625 28.55L354.89062 28.55L354.89062 34.6125Q354.89062 35.3625 354.98438 35.58125Q355.07812 35.784374 355.28125 35.925Q355.5 36.05 355.89062 36.05Q356.17188 36.05 356.65625 35.971874ZM358.82812 25.253124L358.82812 23.2375L360.59375 23.2375L360.59375 25.253124L358.82812 25.253124ZM358.82812 37.55L358.82812 27.175L360.59375 27.175L360.59375 37.55L358.82812 37.55ZM362.17188 32.3625Q362.17188 29.4875 363.76562 28.096874Q365.10938 26.940624 367.03125 26.940624Q369.17188 26.940624 370.51562 28.346874Q371.875 29.753124 371.875 32.221874Q371.875 34.221874 371.28125 35.378124Q370.6875 36.51875 369.53125 37.159374Q368.39062 37.784374 367.03125 37.784374Q364.84375 37.784374 363.5 36.39375Q362.17188 34.9875 362.17188 32.3625ZM363.96875 32.3625Q363.96875 34.3625 364.82812 35.346874Q365.70312 36.33125 367.03125 36.33125Q368.34375 36.33125 369.20312 35.346874Q370.07812 34.346874 370.07812 32.3Q370.07812 30.378124 369.20312 29.39375Q368.32812 28.39375 367.03125 28.39375Q365.70312 28.39375 364.82812 29.39375Q363.96875 30.378124 363.96875 32.3625ZM373.8125 37.55L373.8125 27.175L375.40625 27.175L375.40625 28.659374Q376.54688 26.940624 378.70312 26.940624Q379.64062 26.940624 380.42188 27.284374Q381.21875 27.6125 381.60938 28.159374Q382.0 28.70625 382.15625 29.45625Q382.25 29.95625 382.25 31.175L382.25 37.55L380.48438 37.55L380.48438 31.2375Q380.48438 30.159374 380.28125 29.628124Q380.07812 29.096874 379.54688 28.784374Q379.03125 28.471874 378.32812 28.471874Q377.20312 28.471874 376.39062 29.190624Q375.57812 29.89375 375.57812 31.878124L375.57812 37.55L373.8125 37.55Z" fill-rule="nonzero"/></svg>