<svg version="1.1" viewBox="0.0 0.0 600.0 371.0" fill="none" stroke="none" stroke-linecap="square" stroke-miterlimit="10" width="600" height="371" xmlns:xlink="http://www.w3.org/1999/xlink" xmlns="http://www.w3.org/2000/svg"><path fill="#000000" d="M0 0L600.0 0L600.0 371.0L0 371.0L0 0Z" fill-rule="nonzero"/><path stroke="#cccccc" stroke-width="1.0" stroke-linecap="butt" d="M73.5 88.5L73.5 332.5" fill-rule="nonzero"/><path stroke="#333333" stroke-width="1.0" stroke-linecap="butt" d="M179.5 88.5L179.5 332.5" fill-rule="nonzero"/><path stroke="#333333" stroke-width="1.0" stroke-linecap="butt" d="M285.5 88.5L285.5 332.5" fill-rule="nonzero"/><path stroke="#333333" stroke-width="1.0" stroke-linecap="butt" d="M390.5 88.5L390.5 332.5" fill-rule="nonzero"/><path stroke="#333333" stroke-width="1.0" stroke-linecap="butt" d="M496.5 88.5L496.5 332.5" fill-rule="nonzero"/><path stroke="#cccccc" stroke-width="1.0" stroke-linecap="butt" d="M73.5 332.5L581.5 332.5" fill-rule="nonzero"/><path stroke="#333333" stroke-width="1.0" stroke-linecap="butt" d="M73.5 271.5L581.5 271.5" fill-rule="nonzero"/><path stroke="#333333" stroke-width="1.0" stroke-linecap="butt" d="M73.5 210.5L581.5 210.5" fill-rule="nonzero"/><path stroke="#333333" stroke-width="1.0" stroke-linecap="butt" d="M73.5 149.5L581.5 149.5" fill-rule="nonzero"/><path stroke="#333333" stroke-width="1.0" stroke-linecap="butt" d="M73.5 88.5L581.5 88.5" fill-rule="nonzero"/><clipPath id="id_0"><path d="M73.55 88.28333L581.45 88.28333L581.45 332.45L73.55 332.45L73.55 88.28333Z" clip-rule="nonzero"/></clipPath><path stroke="#4285f4" stroke-width="2.0" stroke-linecap="butt" clip-path="url(#id_0)" d="M73.55 314.1375L84.13125 311.97562L94.7125 309.81372L105.29375 307.65182L115.875 305.48993L126.45625 303.32803L137.0375 301.16614L147.61874 299.00424L158.2 296.84235L168.78125 294.68048L179.3625 292.5186L189.94376 290.3567L200.525 288.1948L211.10625 286.0329L221.6875 283.871L232.26875 281.7091L242.85 279.5472L253.43124 277.3853L264.0125 275.22345L274.59375 273.06155L285.175 270.89966L295.75626 268.73776L306.3375 266.57587L316.91876 264.41397L327.5 262.25208L338.08124 260.09018L348.6625 257.92828L359.24374 255.7664L369.825 253.6045L380.40625 251.44263L390.9875 249.28073L401.56876 247.11884L412.15 244.95694L422.73126 242.79506L433.3125 240.63316L443.89374 238.47127L454.475 236.30937L465.05624 234.14748L475.6375 231.9856L486.21875 229.8237L496.8 227.6618L507.38126 225.49991L517.9625 223.33803L528.54376 221.17613L539.125 219.01424L549.70624 216.85234L560.2875 214.69044L570.8688 212.52856L581.45 210.36667" fill-rule="nonzero"/><path stroke="#ea4335" stroke-width="2.0" stroke-linecap="butt" clip-path="url(#id_0)" d="M73.55 106.59583L84.13125 108.75773L94.7125 110.91962L105.29375 113.08151L115.875 115.2434L126.45625 117.4053L137.0375 119.567184L147.61874 121.72908L158.2 123.890976L168.78125 126.052864L179.3625 128.21475L189.94376 130.37665L200.525 132.53854L211.10625 134.70044L221.6875 136.86232L232.26875 139.02422L242.85 141.18611L253.43124 143.348L264.0125 145.5099L274.59375 147.67178L285.175 149.83368L295.75626 151.99557L306.3375 154.15747L316.91876 156.31935L327.5 158.48125L338.08124 160.64314L348.6625 162.80504L359.24374 164.96693L369.825 167.12881L380.40625 169.29071L390.9875 171.4526L401.56876 173.6145L412.15 175.77638L422.73126 177.93828L433.3125 180.10017L443.89374 182.26207L454.475 184.42397L465.05624 186.58585L475.6375 188.74774L486.21875 190.90964L496.8 193.07153L507.38126 195.23341L517.9625 197.39531L528.54376 199.5572L539.125 201.7191L549.70624 203.881L560.2875 206.04288L570.8688 208.20477L581.45 210.36667" fill-rule="nonzero"/><path fill="#000000" fill-opacity="0.0" clip-path="url(#id_0)" d="M76.55 314.1375C76.55 315.79434 75.206856 317.1375 73.55 317.1375C71.89314 317.1375 70.55 315.79434 70.55 314.1375C70.55 312.48065 71.89314 311.1375 73.55 311.1375C75.206856 311.1375 76.55 312.48065 76.55 314.1375Z" fill-rule="nonzero"/><path fill="#000000" fill-opacity="0.0" clip-path="url(#id_0)" d="M87.13125 311.97562C87.13125 313.63248 85.7881 314.97562 84.13125 314.97562C82.474396 314.97562 81.13125 313.63248 81.13125 311.97562C81.13125 310.31876 82.474396 308.97562 84.13125 308.97562C85.7881 308.97562 87.13125 310.31876 87.13125 311.97562Z" fill-rule="nonzero"/><path fill="#000000" fill-opacity="0.0" clip-path="url(#id_0)" d="M97.7125 309.81372C97.7125 311.47058 96.369354 312.81372 94.7125 312.81372C93.05565 312.81372 91.7125 311.47058 91.7125 309.81372C91.7125 308.15686 93.05565 306.81372 94.7125 306.81372C96.369354 306.81372 97.7125 308.15686 97.7125 309.81372Z" fill-rule="nonzero"/><path fill="#000000" fill-opacity="0.0" clip-path="url(#id_0)" d="M108.29375 307.65182C108.29375 309.3087 106.95061 310.65182 105.29375 310.65182C103.636894 310.65182 102.29375 309.3087 102.29375 307.65182C102.29375 305.99496 103.636894 304.65182 105.29375 304.65182C106.95061 304.65182 108.29375 305.99496 108.29375 307.65182Z" fill-rule="nonzero"/><path fill="#000000" fill-opacity="0.0" clip-path="url(#id_0)" d="M118.875 305.48993C118.875 307.1468 117.53185 308.48993 115.875 308.48993C114.21815 308.48993 112.875 307.1468 112.875 305.48993C112.875 303.83307 114.21815 302.48993 115.875 302.48993C117.53185 302.48993 118.875 303.83307 118.875 305.48993Z" fill-rule="nonzero"/><path fill="#000000" fill-opacity="0.0" clip-path="url(#id_0)" d="M129.45625 303.32803C129.45625 304.9849 128.1131 306.32803 126.45625 306.32803C124.79939 306.32803 123.45625 304.9849 123.45625 303.32803C123.45625 301.67117 124.79939 300.32803 126.45625 300.32803C128.1131 300.32803 129.45625 301.67117 129.45625 303.32803Z" fill-rule="nonzero"/><path fill="#000000" fill-opacity="0.0" clip-path="url(#id_0)" d="M140.0375 301.16614C140.0375 302.823 138.69435 304.16614 137.0375 304.16614C135.38065 304.16614 134.0375 302.823 134.0375 301.16614C134.0375 299.50928 135.38065 298.16614 137.0375 298.16614C138.69435 298.16614 140.0375 299.50928 140.0375 301.16614Z" fill-rule="nonzero"/><path fill="#000000" fill-opacity="0.0" clip-path="url(#id_0)" d="M150.61874 299.00424C150.61874 300.6611 149.2756 302.00424 147.61874 302.00424C145.9619 302.00424 144.61874 300.6611 144.61874 299.00424C144.61874 297.3474 145.9619 296.00424 147.61874 296.00424C149.2756 296.00424 150.61874 297.3474 150.61874 299.00424Z" fill-rule="nonzero"/><path fill="#000000" fill-opacity="0.0" clip-path="url(#id_0)" d="M161.2 296.84235C161.2 298.4992 159.85686 299.84235 158.2 299.84235C156.54315 299.84235 155.2 298.4992 155.2 296.84235C155.2 295.18552 156.54315 293.84235 158.2 293.84235C159.85686 293.84235 161.2 295.18552 161.2 296.84235Z" fill-rule="nonzero"/><path fill="#000000" fill-opacity="0.0" clip-path="url(#id_0)" d="M171.78125 294.68048C171.78125 296.3373 170.43811 297.68048 168.78125 297.68048C167.12439 297.68048 165.78125 296.3373 165.78125 294.68048C165.78125 293.02362 167.12439 291.68048 168.78125 291.68048C170.43811 291.68048 171.78125 293.02362 171.78125 294.68048Z" fill-rule="nonzero"/><path fill="#000000" fill-opacity="0.0" clip-path="url(#id_0)" d="M182.3625 292.5186C182.3625 294.17545 181.01935 295.5186 179.3625 295.5186C177.70564 295.5186 176.3625 294.17545 176.3625 292.5186C176.3625 290.86172 177.70564 289.5186 179.3625 289.5186C181.01935 289.5186 182.3625 290.86172 182.3625 292.5186Z" fill-rule="nonzero"/><path fill="#000000" fill-opacity="0.0" clip-path="url(#id_0)" d="M192.94376 290.3567C192.94376 292.01355 191.6006 293.3567 189.94376 293.3567C188.2869 293.3567 186.94376 292.01355 186.94376 290.3567C186.94376 288.69983 188.2869 287.3567 189.94376 287.3567C191.6006 287.3567 192.94376 288.69983 192.94376 290.3567Z" fill-rule="nonzero"/><path fill="#000000" fill-opacity="0.0" clip-path="url(#id_0)" d="M203.525 288.1948C203.525 289.85165 202.18185 291.1948 200.525 291.1948C198.86815 291.1948 197.525 289.85165 197.525 288.1948C197.525 286.53793 198.86815 285.1948 200.525 285.1948C202.18185 285.1948 203.525 286.53793 203.525 288.1948Z" fill-rule="nonzero"/><path fill="#000000" fill-opacity="0.0" clip-path="url(#id_0)" d="M214.10625 286.0329C214.10625 287.68976 212.7631 289.0329 211.10625 289.0329C209.4494 289.0329 208.10625 287.68976 208.10625 286.0329C208.10625 284.37604 209.4494 283.0329 211.10625 283.0329C212.7631 283.0329 214.10625 284.37604 214.10625 286.0329Z" fill-rule="nonzero"/><path fill="#000000" fill-opacity="0.0" clip-path="url(#id_0)" d="M224.6875 283.871C224.6875 285.52786 223.34436 286.871 221.6875 286.871C220.03064 286.871 218.6875 285.52786 218.6875 283.871C218.6875 282.21414 220.03064 280.871 221.6875 280.871C223.34436 280.871 224.6875 282.21414 224.6875 283.871Z" fill-rule="nonzero"/><path fill="#000000" fill-opacity="0.0" clip-path="url(#id_0)" d="M235.26875 281.7091C235.26875 283.36597 233.9256 284.7091 232.26875 284.7091C230.6119 284.7091 229.26875 283.36597 229.26875 281.7091C229.26875 280.05225 230.6119 278.7091 232.26875 278.7091C233.9256 278.7091 235.26875 280.05225 235.26875 281.7091Z" fill-rule="nonzero"/><path fill="#000000" fill-opacity="0.0" clip-path="url(#id_0)" d="M245.85 279.5472C245.85 281.20407 244.50685 282.5472 242.85 282.5472C241.19315 282.5472 239.85 281.20407 239.85 279.5472C239.85 277.89038 241.19315 276.5472 242.85 276.5472C244.50685 276.5472 245.85 277.89038 245.85 279.5472Z" fill-rule="nonzero"/><path fill="#000000" fill-opacity="0.0" clip-path="url(#id_0)" d="M256.43124 277.3853C256.43124 279.04218 255.0881 280.3853 253.43124 280.3853C251.7744 280.3853 250.43124 279.04218 250.43124 277.3853C250.43124 275.7285 251.7744 274.3853 253.43124 274.3853C255.0881 274.3853 256.43124 275.7285 256.43124 277.3853Z" fill-rule="nonzero"/><path fill="#000000" fill-opacity="0.0" clip-path="url(#id_0)" d="M267.0125 275.22345C267.0125 276.88028 265.66934 278.22345 264.0125 278.22345C262.35565 278.22345 261.0125 276.88028 261.0125 275.22345C261.0125 273.5666 262.35565 272.22345 264.0125 272.22345C265.66934 272.22345 267.0125 273.5666 267.0125 275.22345Z" fill-rule="nonzero"/><path fill="#000000" fill-opacity="0.0" clip-path="url(#id_0)" d="M277.59375 273.06155C277.59375 274.7184 276.2506 276.06155 274.59375 276.06155C272.9369 276.06155 271.59375 274.7184 271.59375 273.06155C271.59375 271.4047 272.9369 270.06155 274.59375 270.06155C276.2506 270.06155 277.59375 271.4047 277.59375 273.06155Z" fill-rule="nonzero"/><path fill="#000000" fill-opacity="0.0" clip-path="url(#id_0)" d="M288.175 270.89966C288.175 272.55652 286.83185 273.89966 285.175 273.89966C283.51816 273.89966 282.175 272.55652 282.175 270.89966C282.175 269.2428 283.51816 267.89966 285.175 267.89966C286.83185 267.89966 288.175 269.2428 288.175 270.89966Z" fill-rule="nonzero"/><path fill="#000000" fill-opacity="0.0" clip-path="url(#id_0)" d="M298.75626 268.73776C298.75626 270.39462 297.41312 271.73776 295.75626 271.73776C294.0994 271.73776 292.75626 270.39462 292.75626 268.73776C292.75626 267.0809 294.0994 265.73776 295.75626 265.73776C297.41312 265.73776 298.75626 267.0809 298.75626 268.73776Z" fill-rule="nonzero"/><path fill="#000000" fill-opacity="0.0" clip-path="url(#id_0)" d="M309.3375 266.57587C309.3375 268.23273 307.99435 269.57587 306.3375 269.57587C304.68063 269.57587 303.3375 268.23273 303.3375 266.57587C303.3375 264.919 304.68063 263.57587 306.3375 263.57587C307.99435 263.57587 309.3375 264.919 309.3375 266.57587Z" fill-rule="nonzero"/><path fill="#000000" fill-opacity="0.0" clip-path="url(#id_0)" d="M319.91876 264.41397C319.91876 266.07083 318.5756 267.41397 316.91876 267.41397C315.2619 267.41397 313.91876 266.07083 313.91876 264.41397C313.91876 262.7571 315.2619 261.41397 316.91876 261.41397C318.5756 261.41397 319.91876 262.7571 319.91876 264.41397Z" fill-rule="nonzero"/><path fill="#000000" fill-opacity="0.0" clip-path="url(#id_0)" d="M330.5 262.25208C330.5 263.90894 329.15686 265.25208 327.5 265.25208C325.84314 265.25208 324.5 263.90894 324.5 262.25208C324.5 260.5952 325.84314 259.25208 327.5 259.25208C329.15686 259.25208 330.5 260.5952 330.5 262.25208Z" fill-rule="nonzero"/><path fill="#000000" fill-opacity="0.0" clip-path="url(#id_0)" d="M341.08124 260.09018C341.08124 261.74704 339.7381 263.09018 338.08124 263.09018C336.4244 263.09018 335.08124 261.74704 335.08124 260.09018C335.08124 258.43335 336.4244 257.09018 338.08124 257.09018C339.7381 257.09018 341.08124 258.43335 341.08124 260.09018Z" fill-rule="nonzero"/><path fill="#000000" fill-opacity="0.0" clip-path="url(#id_0)" d="M351.6625 257.92828C351.6625 259.58514 350.31937 260.92828 348.6625 260.92828C347.00565 260.92828 345.6625 259.58514 345.6625 257.92828C345.6625 256.27145 347.00565 254.9283 348.6625 254.9283C350.31937 254.9283 351.6625 256.27145 351.6625 257.92828Z" fill-rule="nonzero"/><path fill="#000000" fill-opacity="0.0" clip-path="url(#id_0)" d="M362.24374 255.7664C362.24374 257.42325 360.9006 258.76642 359.24374 258.76642C357.58688 258.76642 356.24374 257.42325 356.24374 255.7664C356.24374 254.10956 357.58688 252.7664 359.24374 252.7664C360.9006 252.7664 362.24374 254.10956 362.24374 255.7664Z" fill-rule="nonzero"/><path fill="#000000" fill-opacity="0.0" clip-path="url(#id_0)" d="M372.825 253.6045C372.825 255.26137 371.48184 256.60452 369.825 256.60452C368.16815 256.60452 366.825 255.26137 366.825 253.6045C366.825 251.94766 368.16815 250.6045 369.825 250.6045C371.48184 250.6045 372.825 251.94766 372.825 253.6045Z" fill-rule="nonzero"/><path fill="#000000" fill-opacity="0.0" clip-path="url(#id_0)" d="M383.40625 251.44263C383.40625 253.09947 382.0631 254.44263 380.40625 254.44263C378.7494 254.44263 377.40625 253.09947 377.40625 251.44263C377.40625 249.78577 378.7494 248.44263 380.40625 248.44263C382.0631 248.44263 383.40625 249.78577 383.40625 251.44263Z" fill-rule="nonzero"/><path fill="#000000" fill-opacity="0.0" clip-path="url(#id_0)" d="M393.9875 249.28073C393.9875 250.93758 392.64435 252.28073 390.9875 252.28073C389.33066 252.28073 387.9875 250.93758 387.9875 249.28073C387.9875 247.62387 389.33066 246.28073 390.9875 246.28073C392.64435 246.28073 393.9875 247.62387 393.9875 249.28073Z" fill-rule="nonzero"/><path fill="#000000" fill-opacity="0.0" clip-path="url(#id_0)" d="M404.56876 247.11884C404.56876 248.7757 403.22562 250.11884 401.56876 250.11884C399.9119 250.11884 398.56876 248.7757 398.56876 247.11884C398.56876 245.46198 399.9119 244.11884 401.56876 244.11884C403.22562 244.11884 404.56876 245.46198 404.56876 247.11884Z" fill-rule="nonzero"/><path fill="#000000" fill-opacity="0.0" clip-path="url(#id_0)" d="M415.15 244.95694C415.15 246.6138 413.80685 247.95694 412.15 247.95694C410.49313 247.95694 409.15 246.6138 409.15 244.95694C409.15 243.3001 410.49313 241.95694 412.15 241.95694C413.80685 241.95694 415.15 243.3001 415.15 244.95694Z" fill-rule="nonzero"/><path fill="#000000" fill-opacity="0.0" clip-path="url(#id_0)" d="M425.73126 242.79506C425.73126 244.4519 424.3881 245.79506 422.73126 245.79506C421.0744 245.79506 419.73126 244.4519 419.73126 242.79506C419.73126 241.1382 421.0744 239.79506 422.73126 239.79506C424.3881 239.79506 425.73126 241.1382 425.73126 242.79506Z" fill-rule="nonzero"/><path fill="#000000" fill-opacity="0.0" clip-path="url(#id_0)" d="M436.3125 240.63316C436.3125 242.29001 434.96936 243.63316 433.3125 243.63316C431.65564 243.63316 430.3125 242.29001 430.3125 240.63316C430.3125 238.9763 431.65564 237.63316 433.3125 237.63316C434.96936 237.63316 436.3125 238.9763 436.3125 240.63316Z" fill-rule="nonzero"/><path fill="#000000" fill-opacity="0.0" clip-path="url(#id_0)" d="M446.89374 238.47127C446.89374 240.12813 445.5506 241.47127 443.89374 241.47127C442.2369 241.47127 440.89374 240.12813 440.89374 238.47127C440.89374 236.8144 442.2369 235.47127 443.89374 235.47127C445.5506 235.47127 446.89374 236.8144 446.89374 238.47127Z" fill-rule="nonzero"/><path fill="#000000" fill-opacity="0.0" clip-path="url(#id_0)" d="M457.475 236.30937C457.475 237.96623 456.13187 239.30937 454.475 239.30937C452.81815 239.30937 451.475 237.96623 451.475 236.30937C451.475 234.65253 452.81815 233.30937 454.475 233.30937C456.13187 233.30937 457.475 234.65253 457.475 236.30937Z" fill-rule="nonzero"/><path fill="#000000" fill-opacity="0.0" clip-path="url(#id_0)" d="M468.05624 234.14748C468.05624 235.80434 466.7131 237.14748 465.05624 237.14748C463.39938 237.14748 462.05624 235.80434 462.05624 234.14748C462.05624 232.49063 463.39938 231.14748 465.05624 231.14748C466.7131 231.14748 468.05624 232.49063 468.05624 234.14748Z" fill-rule="nonzero"/><path fill="#000000" fill-opacity="0.0" clip-path="url(#id_0)" d="M478.6375 231.9856C478.6375 233.64244 477.29434 234.9856 475.6375 234.9856C473.98065 234.9856 472.6375 233.64244 472.6375 231.9856C472.6375 230.32874 473.98065 228.9856 475.6375 228.9856C477.29434 228.9856 478.6375 230.32874 478.6375 231.9856Z" fill-rule="nonzero"/><path fill="#000000" fill-opacity="0.0" clip-path="url(#id_0)" d="M489.21875 229.8237C489.21875 231.48055 487.8756 232.8237 486.21875 232.8237C484.5619 232.8237 483.21875 231.48055 483.21875 229.8237C483.21875 228.16684 484.5619 226.8237 486.21875 226.8237C487.8756 226.8237 489.21875 228.16684 489.21875 229.8237Z" fill-rule="nonzero"/><path fill="#000000" fill-opacity="0.0" clip-path="url(#id_0)" d="M499.8 227.6618C499.8 229.31866 498.45685 230.6618 496.8 230.6618C495.14316 230.6618 493.8 229.31866 493.8 227.6618C493.8 226.00494 495.14316 224.6618 496.8 224.6618C498.45685 224.6618 499.8 226.00494 499.8 227.6618Z" fill-rule="nonzero"/><path fill="#000000" fill-opacity="0.0" clip-path="url(#id_0)" d="M510.38126 225.49991C510.38126 227.15677 509.03812 228.49991 507.38126 228.49991C505.7244 228.49991 504.38126 227.15677 504.38126 225.49991C504.38126 223.84306 505.7244 222.49991 507.38126 222.49991C509.03812 222.49991 510.38126 223.84306 510.38126 225.49991Z" fill-rule="nonzero"/><path fill="#000000" fill-opacity="0.0" clip-path="url(#id_0)" d="M520.9625 223.33803C520.9625 224.99487 519.6194 226.33803 517.9625 226.33803C516.30566 226.33803 514.9625 224.99487 514.9625 223.33803C514.9625 221.68117 516.30566 220.33803 517.9625 220.33803C519.6194 220.33803 520.9625 221.68117 520.9625 223.33803Z" fill-rule="nonzero"/><path fill="#000000" fill-opacity="0.0" clip-path="url(#id_0)" d="M531.54376 221.17613C531.54376 222.83298 530.2006 224.17613 528.54376 224.17613C526.8869 224.17613 525.54376 222.83298 525.54376 221.17613C525.54376 219.51927 526.8869 218.17613 528.54376 218.17613C530.2006 218.17613 531.54376 219.51927 531.54376 221.17613Z" fill-rule="nonzero"/><path fill="#000000" fill-opacity="0.0" clip-path="url(#id_0)" d="M542.125 219.01424C542.125 220.6711 540.78186 222.01424 539.125 222.01424C537.46814 222.01424 536.125 220.6711 536.125 219.01424C536.125 217.35738 537.46814 216.01424 539.125 216.01424C540.78186 216.01424 542.125 217.35738 542.125 219.01424Z" fill-rule="nonzero"/><path fill="#000000" fill-opacity="0.0" clip-path="url(#id_0)" d="M552.70624 216.85234C552.70624 218.5092 551.3631 219.85234 549.70624 219.85234C548.0494 219.85234 546.70624 218.5092 546.70624 216.85234C546.70624 215.1955 548.0494 213.85234 549.70624 213.85234C551.3631 213.85234 552.70624 215.1955 552.70624 216.85234Z" fill-rule="nonzero"/><path fill="#000000" fill-opacity="0.0" clip-path="url(#id_0)" d="M563.2875 214.69044C563.2875 216.3473 561.94434 217.69044 560.2875 217.69044C558.6306 217.69044 557.2875 216.3473 557.2875 214.69044C557.2875 213.0336 558.6306 211.69044 560.2875 211.69044C561.94434 211.69044 563.2875 213.0336 563.2875 214.69044Z" fill-rule="nonzero"/><path fill="#000000" fill-opacity="0.0" clip-path="url(#id_0)" d="M573.8688 212.52856C573.8688 214.18541 572.52563 215.52856 570.8688 215.52856C569.2119 215.52856 567.8688 214.18541 567.8688 212.52856C567.8688 210.8717 569.2119 209.52856 570.8688 209.52856C572.52563 209.52856 573.8688 210.8717 573.8688 212.52856Z" fill-rule="nonzero"/><path fill="#000000" fill-opacity="0.0" clip-path="url(#id_0)" d="M584.45 210.36667C584.45 212.02351 583.1069 213.36667 581.45 213.36667C579.79315 213.36667 578.45 212.02351 578.45 210.36667C578.45 208.70981 579.79315 207.36667 581.45 207.36667C583.1069 207.36667 584.45 208.70981 584.45 210.36667Z" fill-rule="nonzero"/><path fill="#000000" fill-opacity="0.0" clip-path="url(#id_0)" d="M76.55 106.59583C76.55 108.252686 75.206856 109.59583 73.55 109.59583C71.89314 109.59583 70.55 108.252686 70.55 106.59583C70.55 104.93898 71.89314 103.59583 73.55 103.59583C75.206856 103.59583 76.55 104.93898 76.55 106.59583Z" fill-rule="nonzero"/><path fill="#000000" fill-opacity="0.0" clip-path="url(#id_0)" d="M87.13125 108.75773C87.13125 110.41458 85.7881 111.75773 84.13125 111.75773C82.474396 111.75773 81.13125 110.41458 81.13125 108.75773C81.13125 107.10087 82.474396 105.75773 84.13125 105.75773C85.7881 105.75773 87.13125 107.10087 87.13125 108.75773Z" fill-rule="nonzero"/><path fill="#000000" fill-opacity="0.0" clip-path="url(#id_0)" d="M97.7125 110.91962C97.7125 112.57647 96.369354 113.91962 94.7125 113.91962C93.05565 113.91962 91.7125 112.57647 91.7125 110.91962C91.7125 109.262764 93.05565 107.91962 94.7125 107.91962C96.369354 107.91962 97.7125 109.262764 97.7125 110.91962Z" fill-rule="nonzero"/><path fill="#000000" fill-opacity="0.0" clip-path="url(#id_0)" d="M108.29375 113.08151C108.29375 114.738365 106.95061 116.08151 105.29375 116.08151C103.636894 116.08151 102.29375 114.738365 102.29375 113.08151C102.29375 111.42466 103.636894 110.08151 105.29375 110.08151C106.95061 110.08151 108.29375 111.42466 108.29375 113.08151Z" fill-rule="nonzero"/><path fill="#000000" fill-opacity="0.0" clip-path="url(#id_0)" d="M118.875 115.2434C118.875 116.90025 117.53185 118.2434 115.875 118.2434C114.21815 118.2434 112.875 116.90025 112.875 115.2434C112.875 113.58655 114.21815 112.2434 115.875 112.2434C117.53185 112.2434 118.875 113.58655 118.875 115.2434Z" fill-rule="nonzero"/><path fill="#000000" fill-opacity="0.0" clip-path="url(#id_0)" d="M129.45625 117.4053C129.45625 119.06215 128.1131 120.4053 126.45625 120.4053C124.79939 120.4053 123.45625 119.06215 123.45625 117.4053C123.45625 115.74844 124.79939 114.4053 126.45625 114.4053C128.1131 114.4053 129.45625 115.74844 129.45625 117.4053Z" fill-rule="nonzero"/><path fill="#000000" fill-opacity="0.0" clip-path="url(#id_0)" d="M140.0375 119.567184C140.0375 121.224045 138.69435 122.567184 137.0375 122.567184C135.38065 122.567184 134.0375 121.224045 134.0375 119.567184C134.0375 117.91033 135.38065 116.567184 137.0375 116.567184C138.69435 116.567184 140.0375 117.91033 140.0375 119.567184Z" fill-rule="nonzero"/><path fill="#000000" fill-opacity="0.0" clip-path="url(#id_0)" d="M150.61874 121.72908C150.61874 123.38593 149.2756 124.72908 147.61874 124.72908C145.9619 124.72908 144.61874 123.38593 144.61874 121.72908C144.61874 120.07223 145.9619 118.72908 147.61874 118.72908C149.2756 118.72908 150.61874 120.07223 150.61874 121.72908Z" fill-rule="nonzero"/><path fill="#000000" fill-opacity="0.0" clip-path="url(#id_0)" d="M161.2 123.890976C161.2 125.54783 159.85686 126.890976 158.2 126.890976C156.54315 126.890976 155.2 125.54783 155.2 123.890976C155.2 122.234116 156.54315 120.890976 158.2 120.890976C159.85686 120.890976 161.2 122.234116 161.2 123.890976Z" fill-rule="nonzero"/><path fill="#000000" fill-opacity="0.0" clip-path="url(#id_0)" d="M171.78125 126.052864C171.78125 127.70972 170.43811 129.05287 168.78125 129.05287C167.12439 129.05287 165.78125 127.70972 165.78125 126.052864C165.78125 124.39601 167.12439 123.052864 168.78125 123.052864C170.43811 123.052864 171.78125 124.39601 171.78125 126.052864Z" fill-rule="nonzero"/><path fill="#000000" fill-opacity="0.0" clip-path="url(#id_0)" d="M182.3625 128.21475C182.3625 129.87161 181.01935 131.21475 179.3625 131.21475C177.70564 131.21475 176.3625 129.87161 176.3625 128.21475C176.3625 126.5579 177.70564 125.21476 179.3625 125.21476C181.01935 125.21476 182.3625 126.5579 182.3625 128.21475Z" fill-rule="nonzero"/><path fill="#000000" fill-opacity="0.0" clip-path="url(#id_0)" d="M192.94376 130.37665C192.94376 132.03351 191.6006 133.37665 189.94376 133.37665C188.2869 133.37665 186.94376 132.03351 186.94376 130.37665C186.94376 128.71979 188.2869 127.37665 189.94376 127.37665C191.6006 127.37665 192.94376 128.71979 192.94376 130.37665Z" fill-rule="nonzero"/><path fill="#000000" fill-opacity="0.0" clip-path="url(#id_0)" d="M203.525 132.53854C203.525 134.19539 202.18185 135.53854 200.525 135.53854C198.86815 135.53854 197.525 134.19539 197.525 132.53854C197.525 130.88168 198.86815 129.53854 200.525 129.53854C202.18185 129.53854 203.525 130.88168 203.525 132.53854Z" fill-rule="nonzero"/><path fill="#000000" fill-opacity="0.0" clip-path="url(#id_0)" d="M214.10625 134.70044C214.10625 136.35728 212.7631 137.70044 211.10625 137.70044C209.4494 137.70044 208.10625 136.35728 208.10625 134.70044C208.10625 133.04358 209.4494 131.70044 211.10625 131.70044C212.7631 131.70044 214.10625 133.04358 214.10625 134.70044Z" fill-rule="nonzero"/><path fill="#000000" fill-opacity="0.0" clip-path="url(#id_0)" d="M224.6875 136.86232C224.6875 138.51918 223.34436 139.86232 221.6875 139.86232C220.03064 139.86232 218.6875 138.51918 218.6875 136.86232C218.6875 135.20547 220.03064 133.86232 221.6875 133.86232C223.34436 133.86232 224.6875 135.20547 224.6875 136.86232Z" fill-rule="nonzero"/><path fill="#000000" fill-opacity="0.0" clip-path="url(#id_0)" d="M235.26875 139.02422C235.26875 140.68108 233.9256 142.02422 232.26875 142.02422C230.6119 142.02422 229.26875 140.68108 229.26875 139.02422C229.26875 137.36737 230.6119 136.02422 232.26875 136.02422C233.9256 136.02422 235.26875 137.36737 235.26875 139.02422Z" fill-rule="nonzero"/><path fill="#000000" fill-opacity="0.0" clip-path="url(#id_0)" d="M245.85 141.18611C245.85 142.84297 244.50685 144.18611 242.85 144.18611C241.19315 144.18611 239.85 142.84297 239.85 141.18611C239.85 139.52925 241.19315 138.18611 242.85 138.18611C244.50685 138.18611 245.85 139.52925 245.85 141.18611Z" fill-rule="nonzero"/><path fill="#000000" fill-opacity="0.0" clip-path="url(#id_0)" d="M256.43124 143.348C256.43124 145.00485 255.0881 146.348 253.43124 146.348C251.7744 146.348 250.43124 145.00485 250.43124 143.348C250.43124 141.69115 251.7744 140.348 253.43124 140.348C255.0881 140.348 256.43124 141.69115 256.43124 143.348Z" fill-rule="nonzero"/><path fill="#000000" fill-opacity="0.0" clip-path="url(#id_0)" d="M267.0125 145.5099C267.0125 147.16675 265.66934 148.5099 264.0125 148.5099C262.35565 148.5099 261.0125 147.16675 261.0125 145.5099C261.0125 143.85304 262.35565 142.5099 264.0125 142.5099C265.66934 142.5099 267.0125 143.85304 267.0125 145.5099Z" fill-rule="nonzero"/><path fill="#000000" fill-opacity="0.0" clip-path="url(#id_0)" d="M277.59375 147.67178C277.59375 149.32864 276.2506 150.67178 274.59375 150.67178C272.9369 150.67178 271.59375 149.32864 271.59375 147.67178C271.59375 146.01494 272.9369 144.67178 274.59375 144.67178C276.2506 144.67178 277.59375 146.01494 277.59375 147.67178Z" fill-rule="nonzero"/><path fill="#000000" fill-opacity="0.0" clip-path="url(#id_0)" d="M288.175 149.83368C288.175 151.49054 286.83185 152.83368 285.175 152.83368C283.51816 152.83368 282.175 151.49054 282.175 149.83368C282.175 148.17682 283.51816 146.83368 285.175 146.83368C286.83185 146.83368 288.175 148.17682 288.175 149.83368Z" fill-rule="nonzero"/><path fill="#000000" fill-opacity="0.0" clip-path="url(#id_0)" d="M298.75626 151.99557C298.75626 153.65242 297.41312 154.99557 295.75626 154.99557C294.0994 154.99557 292.75626 153.65242 292.75626 151.99557C292.75626 150.33871 294.0994 148.99557 295.75626 148.99557C297.41312 148.99557 298.75626 150.33871 298.75626 151.99557Z" fill-rule="nonzero"/><path fill="#000000" fill-opacity="0.0" clip-path="url(#id_0)" d="M309.3375 154.15747C309.3375 155.81432 307.99435 157.15747 306.3375 157.15747C304.68063 157.15747 303.3375 155.81432 303.3375 154.15747C303.3375 152.50061 304.68063 151.15747 306.3375 151.15747C307.99435 151.15747 309.3375 152.50061 309.3375 154.15747Z" fill-rule="nonzero"/><path fill="#000000" fill-opacity="0.0" clip-path="url(#id_0)" d="M319.91876 156.31935C319.91876 157.97621 318.5756 159.31935 316.91876 159.31935C315.2619 159.31935 313.91876 157.97621 313.91876 156.31935C313.91876 154.6625 315.2619 153.31935 316.91876 153.31935C318.5756 153.31935 319.91876 154.6625 319.91876 156.31935Z" fill-rule="nonzero"/><path fill="#000000" fill-opacity="0.0" clip-path="url(#id_0)" d="M330.5 158.48125C330.5 160.1381 329.15686 161.48125 327.5 161.48125C325.84314 161.48125 324.5 160.1381 324.5 158.48125C324.5 156.8244 325.84314 155.48125 327.5 155.48125C329.15686 155.48125 330.5 156.8244 330.5 158.48125Z" fill-rule="nonzero"/><path fill="#000000" fill-opacity="0.0" clip-path="url(#id_0)" d="M341.08124 160.64314C341.08124 162.3 339.7381 163.64314 338.08124 163.64314C336.4244 163.64314 335.08124 162.3 335.08124 160.64314C335.08124 158.98628 336.4244 157.64314 338.08124 157.64314C339.7381 157.64314 341.08124 158.98628 341.08124 160.64314Z" fill-rule="nonzero"/><path fill="#000000" fill-opacity="0.0" clip-path="url(#id_0)" d="M351.6625 162.80504C351.6625 164.46188 350.31937 165.80504 348.6625 165.80504C347.00565 165.80504 345.6625 164.46188 345.6625 162.80504C345.6625 161.14818 347.00565 159.80504 348.6625 159.80504C350.31937 159.80504 351.6625 161.14818 351.6625 162.80504Z" fill-rule="nonzero"/><path fill="#000000" fill-opacity="0.0" clip-path="url(#id_0)" d="M362.24374 164.96693C362.24374 166.62378 360.9006 167.96693 359.24374 167.96693C357.58688 167.96693 356.24374 166.62378 356.24374 164.96693C356.24374 163.31007 357.58688 161.96693 359.24374 161.96693C360.9006 161.96693 362.24374 163.31007 362.24374 164.96693Z" fill-rule="nonzero"/><path fill="#000000" fill-opacity="0.0" clip-path="url(#id_0)" d="M372.825 167.12881C372.825 168.78568 371.48184 170.12881 369.825 170.12881C368.16815 170.12881 366.825 168.78568 366.825 167.12881C366.825 165.47197 368.16815 164.12881 369.825 164.12881C371.48184 164.12881 372.825 165.47197 372.825 167.12881Z" fill-rule="nonzero"/><path fill="#000000" fill-opacity="0.0" clip-path="url(#id_0)" d="M383.40625 169.29071C383.40625 170.94757 382.0631 172.29071 380.40625 172.29071C378.7494 172.29071 377.40625 170.94757 377.40625 169.29071C377.40625 167.63385 378.7494 166.29071 380.40625 166.29071C382.0631 166.29071 383.40625 167.63385 383.40625 169.29071Z" fill-rule="nonzero"/><path fill="#000000" fill-opacity="0.0" clip-path="url(#id_0)" d="M393.9875 171.4526C393.9875 173.10945 392.64435 174.4526 390.9875 174.4526C389.33066 174.4526 387.9875 173.10945 387.9875 171.4526C387.9875 169.79575 389.33066 168.4526 390.9875 168.4526C392.64435 168.4526 393.9875 169.79575 393.9875 171.4526Z" fill-rule="nonzero"/><path fill="#000000" fill-opacity="0.0" clip-path="url(#id_0)" d="M404.56876 173.6145C404.56876 175.27135 403.22562 176.6145 401.56876 176.6145C399.9119 176.6145 398.56876 175.27135 398.56876 173.6145C398.56876 171.95764 399.9119 170.6145 401.56876 170.6145C403.22562 170.6145 404.56876 171.95764 404.56876 173.6145Z" fill-rule="nonzero"/><path fill="#000000" fill-opacity="0.0" clip-path="url(#id_0)" d="M415.15 175.77638C415.15 177.43324 413.80685 178.77638 412.15 178.77638C410.49313 178.77638 409.15 177.43324 409.15 175.77638C409.15 174.11954 410.49313 172.77638 412.15 172.77638C413.80685 172.77638 415.15 174.11954 415.15 175.77638Z" fill-rule="nonzero"/><path fill="#000000" fill-opacity="0.0" clip-path="url(#id_0)" d="M425.73126 177.93828C425.73126 179.59514 424.3881 180.93828 422.73126 180.93828C421.0744 180.93828 419.73126 179.59514 419.73126 177.93828C419.73126 176.28143 421.0744 174.93828 422.73126 174.93828C424.3881 174.93828 425.73126 176.28143 425.73126 177.93828Z" fill-rule="nonzero"/><path fill="#000000" fill-opacity="0.0" clip-path="url(#id_0)" d="M436.3125 180.10017C436.3125 181.75703 434.96936 183.10017 433.3125 183.10017C431.65564 183.10017 430.3125 181.75703 430.3125 180.10017C430.3125 178.44331 431.65564 177.10017 433.3125 177.10017C434.96936 177.10017 436.3125 178.44331 436.3125 180.10017Z" fill-rule="nonzero"/><path fill="#000000" fill-opacity="0.0" clip-path="url(#id_0)" d="M446.89374 182.26207C446.89374 183.91891 445.5506 185.26207 443.89374 185.26207C442.2369 185.26207 440.89374 183.91891 440.89374 182.26207C440.89374 180.60521 442.2369 179.26207 443.89374 179.26207C445.5506 179.26207 446.89374 180.60521 446.89374 182.26207Z" fill-rule="nonzero"/><path fill="#000000" fill-opacity="0.0" clip-path="url(#id_0)" d="M457.475 184.42397C457.475 186.08081 456.13187 187.42397 454.475 187.42397C452.81815 187.42397 451.475 186.08081 451.475 184.42397C451.475 182.7671 452.81815 181.42397 454.475 181.42397C456.13187 181.42397 457.475 182.7671 457.475 184.42397Z" fill-rule="nonzero"/><path fill="#000000" fill-opacity="0.0" clip-path="url(#id_0)" d="M468.05624 186.58585C468.05624 188.2427 466.7131 189.58585 465.05624 189.58585C463.39938 189.58585 462.05624 188.2427 462.05624 186.58585C462.05624 184.929 463.39938 183.58585 465.05624 183.58585C466.7131 183.58585 468.05624 184.929 468.05624 186.58585Z" fill-rule="nonzero"/><path fill="#000000" fill-opacity="0.0" clip-path="url(#id_0)" d="M478.6375 188.74774C478.6375 190.4046 477.29434 191.74774 475.6375 191.74774C473.98065 191.74774 472.6375 190.4046 472.6375 188.74774C472.6375 187.09088 473.98065 185.74774 475.6375 185.74774C477.29434 185.74774 478.6375 187.09088 478.6375 188.74774Z" fill-rule="nonzero"/><path fill="#000000" fill-opacity="0.0" clip-path="url(#id_0)" d="M489.21875 190.90964C489.21875 192.56648 487.8756 193.90964 486.21875 193.90964C484.5619 193.90964 483.21875 192.56648 483.21875 190.90964C483.21875 189.25278 484.5619 187.90964 486.21875 187.90964C487.8756 187.90964 489.21875 189.25278 489.21875 190.90964Z" fill-rule="nonzero"/><path fill="#000000" fill-opacity="0.0" clip-path="url(#id_0)" d="M499.8 193.07153C499.8 194.72838 498.45685 196.07153 496.8 196.07153C495.14316 196.07153 493.8 194.72838 493.8 193.07153C493.8 191.41467 495.14316 190.07153 496.8 190.07153C498.45685 190.07153 499.8 191.41467 499.8 193.07153Z" fill-rule="nonzero"/><path fill="#000000" fill-opacity="0.0" clip-path="url(#id_0)" d="M510.38126 195.23341C510.38126 196.89027 509.03812 198.23341 507.38126 198.23341C505.7244 198.23341 504.38126 196.89027 504.38126 195.23341C504.38126 193.57657 505.7244 192.23341 507.38126 192.23341C509.03812 192.23341 510.38126 193.57657 510.38126 195.23341Z" fill-rule="nonzero"/><path fill="#000000" fill-opacity="0.0" clip-path="url(#id_0)" d="M520.9625 197.39531C520.9625 199.05217 519.6194 200.39531 517.9625 200.39531C516.30566 200.39531 514.9625 199.05217 514.9625 197.39531C514.9625 195.73846 516.30566 194.39531 517.9625 194.39531C519.6194 194.39531 520.9625 195.73846 520.9625 197.39531Z" fill-rule="nonzero"/><path fill="#000000" fill-opacity="0.0" clip-path="url(#id_0)" d="M531.54376 199.5572C531.54376 201.21407 530.2006 202.5572 528.54376 202.5572C526.8869 202.5572 525.54376 201.21407 525.54376 199.5572C525.54376 197.90034 526.8869 196.5572 528.54376 196.5572C530.2006 196.5572 531.54376 197.90034 531.54376 199.5572Z" fill-rule="nonzero"/><path fill="#000000" fill-opacity="0.0" clip-path="url(#id_0)" d="M542.125 201.7191C542.125 203.37595 540.78186 204.7191 539.125 204.7191C537.46814 204.7191 536.125 203.37595 536.125 201.7191C536.125 200.06224 537.46814 198.7191 539.125 198.7191C540.78186 198.7191 542.125 200.06224 542.125 201.7191Z" fill-rule="nonzero"/><path fill="#000000" fill-opacity="0.0" clip-path="url(#id_0)" d="M552.70624 203.881C552.70624 205.53784 551.3631 206.881 549.70624 206.881C548.0494 206.881 546.70624 205.53784 546.70624 203.881C546.70624 202.22414 548.0494 200.881 549.70624 200.881C551.3631 200.881 552.70624 202.22414 552.70624 203.881Z" fill-rule="nonzero"/><path fill="#000000" fill-opacity="0.0" clip-path="url(#id_0)" d="M563.2875 206.04288C563.2875 207.69974 561.94434 209.04288 560.2875 209.04288C558.6306 209.04288 557.2875 207.69974 557.2875 206.04288C557.2875 204.38603 558.6306 203.04288 560.2875 203.04288C561.94434 203.04288 563.2875 204.38603 563.2875 206.04288Z" fill-rule="nonzero"/><path fill="#000000" fill-opacity="0.0" clip-path="url(#id_0)" d="M573.8688 208.20477C573.8688 209.86163 572.52563 211.20477 570.8688 211.20477C569.2119 211.20477 567.8688 209.86163 567.8688 208.20477C567.8688 206.54791 569.2119 205.20477 570.8688 205.20477C572.52563 205.20477 573.8688 206.54791 573.8688 208.20477Z" fill-rule="nonzero"/><path fill="#000000" fill-opacity="0.0" clip-path="url(#id_0)" d="M584.45 210.36667C584.45 212.02351 583.1069 213.36667 581.45 213.36667C579.79315 213.36667 578.45 212.02351 578.45 210.36667C578.45 208.70981 579.79315 207.36667 581.45 207.36667C583.1069 207.36667 584.45 208.70981 584.45 210.36667Z" fill-rule="nonzero"/><path fill="#ffffff" d="M33.05 332.21564Q33.05 330.6844 33.3625 329.7625Q33.675 328.825 34.284374 328.325Q34.909374 327.825 35.846874 327.825Q36.534374 327.825 37.05 328.10626Q37.58125 328.3875 37.925 328.91876Q38.26875 329.4344 38.45625 330.1844Q38.64375 330.9344 38.64375 332.21564Q38.64375 333.73126 38.33125 334.65314Q38.034374 335.575 37.409374 336.09064Q36.8 336.59064 35.846874 336.59064Q34.6125 336.59064 33.89375 335.7Q33.05 334.6375 33.05 332.21564ZM34.128124 332.21564Q34.128124 334.325 34.628124 335.02814Q35.128124 335.73126 35.846874 335.73126Q36.58125 335.73126 37.065624 335.02814Q37.565624 334.325 37.565624 332.21564Q37.565624 330.09064 37.065624 329.40314Q36.58125 328.7 35.83125 328.7Q35.1125 328.7 34.675 329.3094Q34.128124 330.09064 34.128124 332.21564ZM40.64375 336.45L40.64375 335.2469L41.846874 335.2469L41.846874 336.45L40.64375 336.45ZM43.05 332.21564Q43.05 330.6844 43.3625 329.7625Q43.675 328.825 44.284374 328.325Q44.909374 327.825 45.846874 327.825Q46.534374 327.825 47.05 328.10626Q47.58125 328.3875 47.925 328.91876Q48.26875 329.4344 48.45625 330.1844Q48.64375 330.9344 48.64375 332.21564Q48.64375 333.73126 48.33125 334.65314Q48.034374 335.575 47.409374 336.09064Q46.8 336.59064 45.846874 336.59064Q44.6125 336.59064 43.89375 335.7Q43.05 334.6375 43.05 332.21564ZM44.128124 332.21564Q44.128124 334.325 44.628124 335.02814Q45.128124 335.73126 45.846874 335.73126Q46.58125 335.73126 47.065624 335.02814Q47.565624 334.325 47.565624 332.21564Q47.565624 330.09064 47.065624 329.40314Q46.58125 328.7 45.83125 328.7Q45.1125 328.7 44.675 329.3094Q44.128124 330.09064 44.128124 332.21564ZM50.05 332.21564Q50.05 330.6844 50.3625 329.7625Q50.675 328.825 51.284374 328.325Q51.909374 327.825 52.846874 327.825Q53.534374 327.825 54.05 328.10626Q54.58125 328.3875 54.925 328.91876Q55.26875 329.4344 55.45625 330.1844Q55.64375 330.9344 55.64375 332.21564Q55.64375 333.73126 55.33125 334.65314Q55.034374 335.575 54.409374 336.09064Q53.8 336.59064 52.846874 336.59064Q51.6125 336.59064 50.89375 335.7Q50.05 334.6375 50.05 332.21564ZM51.128124 332.21564Q51.128124 334.325 51.628124 335.02814Q52.128124 335.73126 52.846874 335.73126Q53.58125 335.73126 54.065624 335.02814Q54.565624 334.325 54.565624 332.21564Q54.565624 330.09064 54.065624 329.40314Q53.58125 328.7 52.83125 328.7Q52.1125 328.7 51.675 329.3094Q51.128124 330.09064 51.128124 332.21564ZM57.253124 329.91876Q57.253124 328.9969 57.70625 328.35626Q58.175 327.71564 59.05 327.71564Q59.8625 327.71564 60.39375 328.29376Q60.925 328.8719 60.925 329.98126Q60.925 331.075 60.378124 331.66876Q59.846874 332.2469 59.065624 332.2469Q58.284374 332.2469 57.76875 331.66876Q57.253124 331.09064 57.253124 329.91876ZM59.08125 328.4344Q58.690624 328.4344 58.425 328.77814Q58.175 329.1219 58.175 330.02814Q58.175 330.85626 58.425 331.2Q58.690624 331.52814 59.08125 331.52814Q59.4875 331.52814 59.7375 331.1844Q60.003124 330.84064 60.003124 329.95Q60.003124 329.10626 59.7375 328.77814Q59.471874 328.4344 59.08125 328.4344ZM59.08125 336.7625L63.784374 327.71564L64.64375 327.71564L59.95625 336.7625L59.08125 336.7625ZM62.8 334.4344Q62.8 333.5125 63.253124 332.8719Q63.721874 332.23126 64.6125 332.23126Q65.425 332.23126 65.95625 332.8094Q66.4875 333.3719 66.4875 334.4969Q66.4875 335.59064 65.94063 336.1844Q65.40938 336.7625 64.6125 336.7625Q63.846874 336.7625 63.315624 336.1844Q62.8 335.60626 62.8 334.4344ZM64.64375 332.95Q64.2375 332.95 63.971874 333.29376Q63.721874 333.6375 63.721874 334.54376Q63.721874 335.35626 63.9875 335.7Q64.25313 336.04376 64.64375 336.04376Q65.03438 336.04376 65.3 335.7Q65.56563 335.35626 65.56563 334.45Q65.56563 333.6219 65.3 333.29376Q65.03438 332.95 64.64375 332.95Z" fill-rule="nonzero"/><path fill="#ffffff" d="M31.596874 274.3927L31.596874 275.40833L25.909374 275.40833Q25.909374 275.03333 26.034374 274.67395Q26.253124 274.09583 26.721874 273.53333Q27.20625 272.97083 28.1125 272.23645Q29.51875 271.0802 30.003124 270.40833Q30.503124 269.73645 30.503124 269.1427Q30.503124 268.5177 30.05 268.09583Q29.596874 267.65833 28.878124 267.65833Q28.1125 267.65833 27.659374 268.11145Q27.20625 268.56458 27.190624 269.37708L26.1125 269.2677Q26.221874 268.04895 26.940624 267.42395Q27.675 266.78333 28.909374 266.78333Q30.14375 266.78333 30.8625 267.47083Q31.58125 268.15833 31.58125 269.17395Q31.58125 269.68958 31.3625 270.18958Q31.159374 270.67395 30.659374 271.23645Q30.175 271.78333 29.05 272.73645Q28.096874 273.53333 27.815624 273.8302Q27.55 274.11145 27.378124 274.3927L31.596874 274.3927ZM33.05 273.15833L34.159374 273.06458Q34.284374 273.87708 34.721874 274.28333Q35.175 274.68958 35.815624 274.68958Q36.565624 274.68958 37.096874 274.11145Q37.628124 273.53333 37.628124 272.59583Q37.628124 271.68958 37.1125 271.17395Q36.6125 270.6427 35.784374 270.6427Q35.284374 270.6427 34.8625 270.87708Q34.45625 271.11145 34.221874 271.47083L33.2375 271.34583L34.065624 266.93958L38.346874 266.93958L38.346874 267.93958L34.909374 267.93958L34.45625 270.25208Q35.221874 269.7052 36.065624 269.7052Q37.190624 269.7052 37.95625 270.48645Q38.7375 271.2677 38.7375 272.50208Q38.7375 273.65833 38.065624 274.5177Q37.2375 275.54895 35.815624 275.54895Q34.64375 275.54895 33.89375 274.8927Q33.159374 274.23645 33.05 273.15833ZM40.64375 275.40833L40.64375 274.2052L41.846874 274.2052L41.846874 275.40833L40.64375 275.40833ZM43.05 271.17395Q43.05 269.6427 43.3625 268.72083Q43.675 267.78333 44.284374 267.28333Q44.909374 266.78333 45.846874 266.78333Q46.534374 266.78333 47.05 267.06458Q47.58125 267.34583 47.925 267.87708Q48.26875 268.3927 48.45625 269.1427Q48.64375 269.8927 48.64375 271.17395Q48.64375 272.68958 48.33125 273.61145Q48.034374 274.53333 47.409374 275.04895Q46.8 275.54895 45.846874 275.54895Q44.6125 275.54895 43.89375 274.65833Q43.05 273.59583 43.05 271.17395ZM44.128124 271.17395Q44.128124 273.28333 44.628124 273.98645Q45.128124 274.68958 45.846874 274.68958Q46.58125 274.68958 47.065624 273.98645Q47.565624 273.28333 47.565624 271.17395Q47.565624 269.04895 47.065624 268.36145Q46.58125 267.65833 45.83125 267.65833Q45.1125 267.65833 44.675 268.2677Q44.128124 269.04895 44.128124 271.17395ZM50.05 271.17395Q50.05 269.6427 50.3625 268.72083Q50.675 267.78333 51.284374 267.28333Q51.909374 266.78333 52.846874 266.78333Q53.534374 266.78333 54.05 267.06458Q54.58125 267.34583 54.925 267.87708Q55.26875 268.3927 55.45625 269.1427Q55.64375 269.8927 55.64375 271.17395Q55.64375 272.68958 55.33125 273.61145Q55.034374 274.53333 54.409374 275.04895Q53.8 275.54895 52.846874 275.54895Q51.6125 275.54895 50.89375 274.65833Q50.05 273.59583 50.05 271.17395ZM51.128124 271.17395Q51.128124 273.28333 51.628124 273.98645Q52.128124 274.68958 52.846874 274.68958Q53.58125 274.68958 54.065624 273.98645Q54.565624 273.28333 54.565624 271.17395Q54.565624 269.04895 54.065624 268.36145Q53.58125 267.65833 52.83125 267.65833Q52.1125 267.65833 51.675 268.2677Q51.128124 269.04895 51.128124 271.17395ZM57.253124 268.87708Q57.253124 267.9552 57.70625 267.31458Q58.175 266.67395 59.05 266.67395Q59.8625 266.67395 60.39375 267.25208Q60.925 267.8302 60.925 268.93958Q60.925 270.03333 60.378124 270.62708Q59.846874 271.2052 59.065624 271.2052Q58.284374 271.2052 57.76875 270.62708Q57.253124 270.04895 57.253124 268.87708ZM59.08125 267.3927Q58.690624 267.3927 58.425 267.73645Q58.175 268.0802 58.175 268.98645Q58.175 269.81458 58.425 270.15833Q58.690624 270.48645 59.08125 270.48645Q59.4875 270.48645 59.7375 270.1427Q60.003124 269.79895 60.003124 268.90833Q60.003124 268.06458 59.7375 267.73645Q59.471874 267.3927 59.08125 267.3927ZM59.08125 275.72083L63.784374 266.67395L64.64375 266.67395L59.95625 275.72083L59.08125 275.72083ZM62.8 273.3927Q62.8 272.47083 63.253124 271.8302Q63.721874 271.18958 64.6125 271.18958Q65.425 271.18958 65.95625 271.7677Q66.4875 272.3302 66.4875 273.4552Q66.4875 274.54895 65.94063 275.1427Q65.40938 275.72083 64.6125 275.72083Q63.846874 275.72083 63.315624 275.1427Q62.8 274.56458 62.8 273.3927ZM64.64375 271.90833Q64.2375 271.90833 63.971874 272.25208Q63.721874 272.59583 63.721874 273.50208Q63.721874 274.31458 63.9875 274.65833Q64.25313 275.00208 64.64375 275.00208Q65.03438 275.00208 65.3 274.65833Q65.56563 274.31458 65.56563 273.40833Q65.56563 272.5802 65.3 272.25208Q65.03438 271.90833 64.64375 271.90833Z" fill-rule="nonzero"/><path fill="#ffffff" d="M26.05 212.11667L27.159374 212.02292Q27.284374 212.83542 27.721874 213.24167Q28.175 213.64792 28.815624 213.64792Q29.565624 213.64792 30.096874 213.0698Q30.628124 212.49167 30.628124 211.55417Q30.628124 210.64792 30.1125 210.1323Q29.6125 209.60104 28.784374 209.60104Q28.284374 209.60104 27.8625 209.83542Q27.45625 210.0698 27.221874 210.42917L26.2375 210.30417L27.065624 205.89792L31.346874 205.89792L31.346874 206.89792L27.909374 206.89792L27.45625 209.21042Q28.221874 208.66354 29.065624 208.66354Q30.190624 208.66354 30.95625 209.4448Q31.7375 210.22604 31.7375 211.46042Q31.7375 212.61667 31.065624 213.47604Q30.2375 214.5073 28.815624 214.5073Q27.64375 214.5073 26.89375 213.85104Q26.159374 213.1948 26.05 212.11667ZM33.05 210.1323Q33.05 208.60104 33.3625 207.67917Q33.675 206.74167 34.284374 206.24167Q34.909374 205.74167 35.846874 205.74167Q36.534374 205.74167 37.05 206.02292Q37.58125 206.30417 37.925 206.83542Q38.26875 207.35104 38.45625 208.10104Q38.64375 208.85104 38.64375 210.1323Q38.64375 211.64792 38.33125 212.5698Q38.034374 213.49167 37.409374 214.0073Q36.8 214.5073 35.846874 214.5073Q34.6125 214.5073 33.89375 213.61667Q33.05 212.55417 33.05 210.1323ZM34.128124 210.1323Q34.128124 212.24167 34.628124 212.9448Q35.128124 213.64792 35.846874 213.64792Q36.58125 213.64792 37.065624 212.9448Q37.565624 212.24167 37.565624 210.1323Q37.565624 208.0073 37.065624 207.3198Q36.58125 206.61667 35.83125 206.61667Q35.1125 206.61667 34.675 207.22604Q34.128124 208.0073 34.128124 210.1323ZM40.64375 214.36667L40.64375 213.16354L41.846874 213.16354L41.846874 214.36667L40.64375 214.36667ZM43.05 210.1323Q43.05 208.60104 43.3625 207.67917Q43.675 206.74167 44.284374 206.24167Q44.909374 205.74167 45.846874 205.74167Q46.534374 205.74167 47.05 206.02292Q47.58125 206.30417 47.925 206.83542Q48.26875 207.35104 48.45625 208.10104Q48.64375 208.85104 48.64375 210.1323Q48.64375 211.64792 48.33125 212.5698Q48.034374 213.49167 47.409374 214.0073Q46.8 214.5073 45.846874 214.5073Q44.6125 214.5073 43.89375 213.61667Q43.05 212.55417 43.05 210.1323ZM44.128124 210.1323Q44.128124 212.24167 44.628124 212.9448Q45.128124 213.64792 45.846874 213.64792Q46.58125 213.64792 47.065624 212.9448Q47.565624 212.24167 47.565624 210.1323Q47.565624 208.0073 47.065624 207.3198Q46.58125 206.61667 45.83125 206.61667Q45.1125 206.61667 44.675 207.22604Q44.128124 208.0073 44.128124 210.1323ZM50.05 210.1323Q50.05 208.60104 50.3625 207.67917Q50.675 206.74167 51.284374 206.24167Q51.909374 205.74167 52.846874 205.74167Q53.534374 205.74167 54.05 206.02292Q54.58125 206.30417 54.925 206.83542Q55.26875 207.35104 55.45625 208.10104Q55.64375 208.85104 55.64375 210.1323Q55.64375 211.64792 55.33125 212.5698Q55.034374 213.49167 54.409374 214.0073Q53.8 214.5073 52.846874 214.5073Q51.6125 214.5073 50.89375 213.61667Q50.05 212.55417 50.05 210.1323ZM51.128124 210.1323Q51.128124 212.24167 51.628124 212.9448Q52.128124 213.64792 52.846874 213.64792Q53.58125 213.64792 54.065624 212.9448Q54.565624 212.24167 54.565624 210.1323Q54.565624 208.0073 54.065624 207.3198Q53.58125 206.61667 52.83125 206.61667Q52.1125 206.61667 51.675 207.22604Q51.128124 208.0073 51.128124 210.1323ZM57.253124 207.83542Q57.253124 206.91354 57.70625 206.27292Q58.175 205.6323 59.05 205.6323Q59.8625 205.6323 60.39375 206.21042Q60.925 206.78854 60.925 207.89792Q60.925 208.99167 60.378124 209.58542Q59.846874 210.16354 59.065624 210.16354Q58.284374 210.16354 57.76875 209.58542Q57.253124 209.0073 57.253124 207.83542ZM59.08125 206.35104Q58.690624 206.35104 58.425 206.6948Q58.175 207.03854 58.175 207.9448Q58.175 208.77292 58.425 209.11667Q58.690624 209.4448 59.08125 209.4448Q59.4875 209.4448 59.7375 209.10104Q60.003124 208.7573 60.003124 207.86667Q60.003124 207.02292 59.7375 206.6948Q59.471874 206.35104 59.08125 206.35104ZM59.08125 214.67917L63.784374 205.6323L64.64375 205.6323L59.95625 214.67917L59.08125 214.67917ZM62.8 212.35104Q62.8 211.42917 63.253124 210.78854Q63.721874 210.14792 64.6125 210.14792Q65.425 210.14792 65.95625 210.72604Q66.4875 211.28854 66.4875 212.41354Q66.4875 213.5073 65.94063 214.10104Q65.40938 214.67917 64.6125 214.67917Q63.846874 214.67917 63.315624 214.10104Q62.8 213.52292 62.8 212.35104ZM64.64375 210.86667Q64.2375 210.86667 63.971874 211.21042Q63.721874 211.55417 63.721874 212.46042Q63.721874 213.27292 63.9875 213.61667Q64.25313 213.96042 64.64375 213.96042Q65.03438 213.96042 65.3 213.61667Q65.56563 213.27292 65.56563 212.36667Q65.56563 211.53854 65.3 211.21042Q65.03438 210.86667 64.64375 210.86667Z" fill-rule="nonzero"/><path fill="#ffffff" d="M26.1125 145.85625L26.1125 144.84062L31.675 144.84062L31.675 145.66875Q30.8625 146.54375 30.05 147.99687Q29.253124 149.43437 28.815624 150.96562Q28.4875 152.04375 28.409374 153.325L27.315624 153.325Q27.33125 152.30937 27.70625 150.87187Q28.096874 149.43437 28.8 148.10625Q29.51875 146.77812 30.33125 145.85625L26.1125 145.85625ZM33.05 151.075L34.159374 150.98125Q34.284374 151.79375 34.721874 152.2Q35.175 152.60625 35.815624 152.60625Q36.565624 152.60625 37.096874 152.02812Q37.628124 151.45 37.628124 150.5125Q37.628124 149.60625 37.1125 149.09062Q36.6125 148.55937 35.784374 148.55937Q35.284374 148.55937 34.8625 148.79375Q34.45625 149.02812 34.221874 149.3875L33.2375 149.2625L34.065624 144.85625L38.346874 144.85625L38.346874 145.85625L34.909374 145.85625L34.45625 148.16875Q35.221874 147.62187 36.065624 147.62187Q37.190624 147.62187 37.95625 148.40312Q38.7375 149.18437 38.7375 150.41875Q38.7375 151.575 38.065624 152.43437Q37.2375 153.46562 35.815624 153.46562Q34.64375 153.46562 33.89375 152.80937Q33.159374 152.15312 33.05 151.075ZM40.64375 153.325L40.64375 152.12187L41.846874 152.12187L41.846874 153.325L40.64375 153.325ZM43.05 149.09062Q43.05 147.55937 43.3625 146.6375Q43.675 145.7 44.284374 145.2Q44.909374 144.7 45.846874 144.7Q46.534374 144.7 47.05 144.98125Q47.58125 145.2625 47.925 145.79375Q48.26875 146.30937 48.45625 147.05937Q48.64375 147.80937 48.64375 149.09062Q48.64375 150.60625 48.33125 151.52812Q48.034374 152.45 47.409374 152.96562Q46.8 153.46562 45.846874 153.46562Q44.6125 153.46562 43.89375 152.575Q43.05 151.5125 43.05 149.09062ZM44.128124 149.09062Q44.128124 151.2 44.628124 151.90312Q45.128124 152.60625 45.846874 152.60625Q46.58125 152.60625 47.065624 151.90312Q47.565624 151.2 47.565624 149.09062Q47.565624 146.96562 47.065624 146.27812Q46.58125 145.575 45.83125 145.575Q45.1125 145.575 44.675 146.18437Q44.128124 146.96562 44.128124 149.09062ZM50.05 149.09062Q50.05 147.55937 50.3625 146.6375Q50.675 145.7 51.284374 145.2Q51.909374 144.7 52.846874 144.7Q53.534374 144.7 54.05 144.98125Q54.58125 145.2625 54.925 145.79375Q55.26875 146.30937 55.45625 147.05937Q55.64375 147.80937 55.64375 149.09062Q55.64375 150.60625 55.33125 151.52812Q55.034374 152.45 54.409374 152.96562Q53.8 153.46562 52.846874 153.46562Q51.6125 153.46562 50.89375 152.575Q50.05 151.5125 50.05 149.09062ZM51.128124 149.09062Q51.128124 151.2 51.628124 151.90312Q52.128124 152.60625 52.846874 152.60625Q53.58125 152.60625 54.065624 151.90312Q54.565624 151.2 54.565624 149.09062Q54.565624 146.96562 54.065624 146.27812Q53.58125 145.575 52.83125 145.575Q52.1125 145.575 51.675 146.18437Q51.128124 146.96562 51.128124 149.09062ZM57.253124 146.79375Q57.253124 145.87187 57.70625 145.23125Q58.175 144.59062 59.05 144.59062Q59.8625 144.59062 60.39375 145.16875Q60.925 145.74687 60.925 146.85625Q60.925 147.95 60.378124 148.54375Q59.846874 149.12187 59.065624 149.12187Q58.284374 149.12187 57.76875 148.54375Q57.253124 147.96562 57.253124 146.79375ZM59.08125 145.30937Q58.690624 145.30937 58.425 145.65312Q58.175 145.99687 58.175 146.90312Q58.175 147.73125 58.425 148.075Q58.690624 148.40312 59.08125 148.40312Q59.4875 148.40312 59.7375 148.05937Q60.003124 147.71562 60.003124 146.825Q60.003124 145.98125 59.7375 145.65312Q59.471874 145.30937 59.08125 145.30937ZM59.08125 153.6375L63.784374 144.59062L64.64375 144.59062L59.95625 153.6375L59.08125 153.6375ZM62.8 151.30937Q62.8 150.3875 63.253124 149.74687Q63.721874 149.10625 64.6125 149.10625Q65.425 149.10625 65.95625 149.68437Q66.4875 150.24687 66.4875 151.37187Q66.4875 152.46562 65.94063 153.05937Q65.40938 153.6375 64.6125 153.6375Q63.846874 153.6375 63.315624 153.05937Q62.8 152.48125 62.8 151.30937ZM64.64375 149.825Q64.2375 149.825 63.971874 150.16875Q63.721874 150.5125 63.721874 151.41875Q63.721874 152.23125 63.9875 152.575Q64.25313 152.91875 64.64375 152.91875Q65.03438 152.91875 65.3 152.575Q65.56563 152.23125 65.56563 151.325Q65.56563 150.49687 65.3 150.16875Q65.03438 149.825 64.64375 149.825Z" fill-rule="nonzero"/><path fill="#ffffff" d="M23.01875 92.28333L21.971874 92.28333L21.971874 85.56458Q21.58125 85.92396 20.95625 86.29896Q20.346874 86.65833 19.8625 86.83021L19.8625 85.81458Q20.7375 85.39271 21.39375 84.81458Q22.065624 84.22083 22.346874 83.65833L23.01875 83.65833L23.01875 92.28333ZM26.05 88.04896Q26.05 86.51771 26.3625 85.59583Q26.675 84.65833 27.284374 84.15833Q27.909374 83.65833 28.846874 83.65833Q29.534374 83.65833 30.05 83.93958Q30.58125 84.22083 30.925 84.75208Q31.26875 85.26771 31.45625 86.01771Q31.64375 86.76771 31.64375 88.04896Q31.64375 89.56458 31.33125 90.48646Q31.034374 91.40833 30.409374 91.92396Q29.8 92.42396 28.846874 92.42396Q27.6125 92.42396 26.89375 91.53333Q26.05 90.47083 26.05 88.04896ZM27.128124 88.04896Q27.128124 90.15833 27.628124 90.86146Q28.128124 91.56458 28.846874 91.56458Q29.58125 91.56458 30.065624 90.86146Q30.565624 90.15833 30.565624 88.04896Q30.565624 85.92396 30.065624 85.23646Q29.58125 84.53333 28.83125 84.53333Q28.1125 84.53333 27.675 85.14271Q27.128124 85.92396 27.128124 88.04896ZM33.05 88.04896Q33.05 86.51771 33.3625 85.59583Q33.675 84.65833 34.284374 84.15833Q34.909374 83.65833 35.846874 83.65833Q36.534374 83.65833 37.05 83.93958Q37.58125 84.22083 37.925 84.75208Q38.26875 85.26771 38.45625 86.01771Q38.64375 86.76771 38.64375 88.04896Q38.64375 89.56458 38.33125 90.48646Q38.034374 91.40833 37.409374 91.92396Q36.8 92.42396 35.846874 92.42396Q34.6125 92.42396 33.89375 91.53333Q33.05 90.47083 33.05 88.04896ZM34.128124 88.04896Q34.128124 90.15833 34.628124 90.86146Q35.128124 91.56458 35.846874 91.56458Q36.58125 91.56458 37.065624 90.86146Q37.565624 90.15833 37.565624 88.04896Q37.565624 85.92396 37.065624 85.23646Q36.58125 84.53333 35.83125 84.53333Q35.1125 84.53333 34.675 85.14271Q34.128124 85.92396 34.128124 88.04896ZM40.64375 92.28333L40.64375 91.08021L41.846874 91.08021L41.846874 92.28333L40.64375 92.28333ZM43.05 88.04896Q43.05 86.51771 43.3625 85.59583Q43.675 84.65833 44.284374 84.15833Q44.909374 83.65833 45.846874 83.65833Q46.534374 83.65833 47.05 83.93958Q47.58125 84.22083 47.925 84.75208Q48.26875 85.26771 48.45625 86.01771Q48.64375 86.76771 48.64375 88.04896Q48.64375 89.56458 48.33125 90.48646Q48.034374 91.40833 47.409374 91.92396Q46.8 92.42396 45.846874 92.42396Q44.6125 92.42396 43.89375 91.53333Q43.05 90.47083 43.05 88.04896ZM44.128124 88.04896Q44.128124 90.15833 44.628124 90.86146Q45.128124 91.56458 45.846874 91.56458Q46.58125 91.56458 47.065624 90.86146Q47.565624 90.15833 47.565624 88.04896Q47.565624 85.92396 47.065624 85.23646Q46.58125 84.53333 45.83125 84.53333Q45.1125 84.53333 44.675 85.14271Q44.128124 85.92396 44.128124 88.04896ZM50.05 88.04896Q50.05 86.51771 50.3625 85.59583Q50.675 84.65833 51.284374 84.15833Q51.909374 83.65833 52.846874 83.65833Q53.534374 83.65833 54.05 83.93958Q54.58125 84.22083 54.925 84.75208Q55.26875 85.26771 55.45625 86.01771Q55.64375 86.76771 55.64375 88.04896Q55.64375 89.56458 55.33125 90.48646Q55.034374 91.40833 54.409374 91.92396Q53.8 92.42396 52.846874 92.42396Q51.6125 92.42396 50.89375 91.53333Q50.05 90.47083 50.05 88.04896ZM51.128124 88.04896Q51.128124 90.15833 51.628124 90.86146Q52.128124 91.56458 52.846874 91.56458Q53.58125 91.56458 54.065624 90.86146Q54.565624 90.15833 54.565624 88.04896Q54.565624 85.92396 54.065624 85.23646Q53.58125 84.53333 52.83125 84.53333Q52.1125 84.53333 51.675 85.14271Q51.128124 85.92396 51.128124 88.04896ZM57.253124 85.75208Q57.253124 84.83021 57.70625 84.18958Q58.175 83.54896 59.05 83.54896Q59.8625 83.54896 60.39375 84.12708Q60.925 84.70521 60.925 85.81458Q60.925 86.90833 60.378124 87.50208Q59.846874 88.08021 59.065624 88.08021Q58.284374 88.08021 57.76875 87.50208Q57.253124 86.92396 57.253124 85.75208ZM59.08125 84.26771Q58.690624 84.26771 58.425 84.61146Q58.175 84.95521 58.175 85.86146Q58.175 86.68958 58.425 87.03333Q58.690624 87.36146 59.08125 87.36146Q59.4875 87.36146 59.7375 87.01771Q60.003124 86.67396 60.003124 85.78333Q60.003124 84.93958 59.7375 84.61146Q59.471874 84.26771 59.08125 84.26771ZM59.08125 92.59583L63.784374 83.54896L64.64375 83.54896L59.95625 92.59583L59.08125 92.59583ZM62.8 90.26771Q62.8 89.34583 63.253124 88.70521Q63.721874 88.06458 64.6125 88.06458Q65.425 88.06458 65.95625 88.64271Q66.4875 89.20521 66.4875 90.33021Q66.4875 91.42396 65.94063 92.01771Q65.40938 92.59583 64.6125 92.59583Q63.846874 92.59583 63.315624 92.01771Q62.8 91.43958 62.8 90.26771ZM64.64375 88.78333Q64.2375 88.78333 63.971874 89.12708Q63.721874 89.47083 63.721874 90.37708Q63.721874 91.18958 63.9875 91.53333Q64.25313 91.87708 64.64375 91.87708Q65.03438 91.87708 65.3 91.53333Q65.56563 91.18958 65.56563 90.28333Q65.56563 89.45521 65.3 89.12708Q65.03438 88.78333 64.64375 88.78333Z" fill-rule="nonzero"/><path fill="#ffffff" d="M70.55 345.21564Q70.55 343.6844 70.8625 342.7625Q71.175 341.825 71.78438 341.325Q72.40938 340.825 73.34688 340.825Q74.03438 340.825 74.55 341.10626Q75.08125 341.3875 75.425 341.91876Q75.76875 342.4344 75.95625 343.1844Q76.14375 343.9344 76.14375 345.21564Q76.14375 346.73126 75.83125 347.65314Q75.53438 348.575 74.90938 349.09064Q74.3 349.59064 73.34688 349.59064Q72.1125 349.59064 71.39375 348.7Q70.55 347.6375 70.55 345.21564ZM71.62813 345.21564Q71.62813 347.325 72.12813 348.02814Q72.62813 348.73126 73.34688 348.73126Q74.08125 348.73126 74.56563 348.02814Q75.06563 347.325 75.06563 345.21564Q75.06563 343.09064 74.56563 342.40314Q74.08125 341.7 73.33125 341.7Q72.6125 341.7 72.175 342.3094Q71.62813 343.09064 71.62813 345.21564Z" fill-rule="nonzero"/><path fill="#ffffff" d="M176.83125 349.45L175.78438 349.45L175.78438 342.73126Q175.39375 343.09064 174.76875 343.46564Q174.15938 343.825 173.675 343.9969L173.675 342.98126Q174.55 342.5594 175.20625 341.98126Q175.87813 341.3875 176.15938 340.825L176.83125 340.825L176.83125 349.45ZM179.8625 345.21564Q179.8625 343.6844 180.175 342.7625Q180.4875 341.825 181.09688 341.325Q181.72188 340.825 182.65938 340.825Q183.34688 340.825 183.8625 341.10626Q184.39375 341.3875 184.7375 341.91876Q185.08125 342.4344 185.26875 343.1844Q185.45625 343.9344 185.45625 345.21564Q185.45625 346.73126 185.14375 347.65314Q184.84688 348.575 184.22188 349.09064Q183.6125 349.59064 182.65938 349.59064Q181.425 349.59064 180.70625 348.7Q179.8625 347.6375 179.8625 345.21564ZM180.94063 345.21564Q180.94063 347.325 181.44063 348.02814Q181.94063 348.73126 182.65938 348.73126Q183.39375 348.73126 183.87813 348.02814Q184.37813 347.325 184.37813 345.21564Q184.37813 343.09064 183.87813 342.40314Q183.39375 341.7 182.64375 341.7Q181.925 341.7 181.4875 342.3094Q180.94063 343.09064 180.94063 345.21564Z" fill-rule="nonzero"/><path fill="#ffffff" d="M284.22186 348.4344L284.22186 349.45L278.53436 349.45Q278.53436 349.075 278.65936 348.71564Q278.8781 348.1375 279.34686 347.575Q279.83124 347.0125 280.7375 346.27814Q282.14374 345.1219 282.6281 344.45Q283.1281 343.77814 283.1281 343.1844Q283.1281 342.5594 282.675 342.1375Q282.22186 341.7 281.5031 341.7Q280.7375 341.7 280.28436 342.15314Q279.83124 342.60626 279.8156 343.41876L278.7375 343.3094Q278.84686 342.09064 279.5656 341.46564Q280.3 340.825 281.53436 340.825Q282.76874 340.825 283.4875 341.5125Q284.20624 342.2 284.20624 343.21564Q284.20624 343.73126 283.9875 344.23126Q283.78436 344.71564 283.28436 345.27814Q282.8 345.825 281.675 346.77814Q280.72186 347.575 280.4406 347.8719Q280.175 348.15314 280.0031 348.4344L284.22186 348.4344ZM285.675 345.21564Q285.675 343.6844 285.9875 342.7625Q286.3 341.825 286.90936 341.325Q287.53436 340.825 288.47186 340.825Q289.15936 340.825 289.675 341.10626Q290.20624 341.3875 290.55 341.91876Q290.89374 342.4344 291.08124 343.1844Q291.26874 343.9344 291.26874 345.21564Q291.26874 346.73126 290.95624 347.65314Q290.65936 348.575 290.03436 349.09064Q289.425 349.59064 288.47186 349.59064Q287.2375 349.59064 286.51874 348.7Q285.675 347.6375 285.675 345.21564ZM286.7531 345.21564Q286.7531 347.325 287.2531 348.02814Q287.7531 348.73126 288.47186 348.73126Q289.20624 348.73126 289.6906 348.02814Q290.1906 347.325 290.1906 345.21564Q290.1906 343.09064 289.6906 342.40314Q289.20624 341.7 288.45624 341.7Q287.7375 341.7 287.3 342.3094Q286.7531 343.09064 286.7531 345.21564Z" fill-rule="nonzero"/><path fill="#ffffff" d="M384.4875 347.1844L385.55 347.04376Q385.72186 347.9344 386.15936 348.34064Q386.59686 348.73126 387.22186 348.73126Q387.97186 348.73126 388.4875 348.21564Q389.0031 347.7 389.0031 346.9344Q389.0031 346.21564 388.51874 345.7469Q388.05 345.2625 387.3156 345.2625Q387.01874 345.2625 386.5656 345.3875L386.6906 344.45Q386.8 344.46564 386.8625 344.46564Q387.53436 344.46564 388.0656 344.1219Q388.6125 343.7625 388.6125 343.02814Q388.6125 342.45 388.22186 342.075Q387.83124 341.6844 387.20624 341.6844Q386.59686 341.6844 386.175 342.075Q385.76874 342.46564 385.65936 343.23126L384.59686 343.04376Q384.78436 341.9969 385.47186 341.41876Q386.15936 340.825 387.175 340.825Q387.8781 340.825 388.47186 341.1375Q389.0656 341.4344 389.3781 341.95Q389.6906 342.46564 389.6906 343.0594Q389.6906 343.60626 389.39374 344.075Q389.09686 344.52814 388.51874 344.79376Q389.26874 344.96564 389.6906 345.52814Q390.1125 346.075 390.1125 346.91876Q390.1125 348.04376 389.28436 348.825Q388.47186 349.60626 387.22186 349.60626Q386.09686 349.60626 385.34686 348.9344Q384.59686 348.2469 384.4875 347.1844ZM391.4875 345.21564Q391.4875 343.6844 391.8 342.7625Q392.1125 341.825 392.72186 341.325Q393.34686 340.825 394.28436 340.825Q394.97186 340.825 395.4875 341.10626Q396.01874 341.3875 396.3625 341.91876Q396.70624 342.4344 396.89374 343.1844Q397.08124 343.9344 397.08124 345.21564Q397.08124 346.73126 396.76874 347.65314Q396.47186 348.575 395.84686 349.09064Q395.2375 349.59064 394.28436 349.59064Q393.05 349.59064 392.33124 348.7Q391.4875 347.6375 391.4875 345.21564ZM392.5656 345.21564Q392.5656 347.325 393.0656 348.02814Q393.5656 348.73126 394.28436 348.73126Q395.01874 348.73126 395.5031 348.02814Q396.0031 347.325 396.0031 345.21564Q396.0031 343.09064 395.5031 342.40314Q395.01874 341.7 394.26874 341.7Q393.55 341.7 393.1125 342.3094Q392.5656 343.09064 392.5656 345.21564Z" fill-rule="nonzero"/><path fill="#ffffff" d="M493.675 349.45L493.675 347.3875L489.95624 347.3875L489.95624 346.41876L493.8781 340.85626L494.7375 340.85626L494.7375 346.41876L495.89374 346.41876L495.89374 347.3875L494.7375 347.3875L494.7375 349.45L493.675 349.45ZM493.675 346.41876L493.675 342.5594L490.9875 346.41876L493.675 346.41876ZM497.3 345.21564Q497.3 343.6844 497.6125 342.7625Q497.925 341.825 498.53436 341.325Q499.15936 340.825 500.09686 340.825Q500.78436 340.825 501.3 341.10626Q501.83124 341.3875 502.175 341.91876Q502.51874 342.4344 502.70624 343.1844Q502.89374 343.9344 502.89374 345.21564Q502.89374 346.73126 502.58124 347.65314Q502.28436 348.575 501.65936 349.09064Q501.05 349.59064 500.09686 349.59064Q498.8625 349.59064 498.14374 348.7Q497.3 347.6375 497.3 345.21564ZM498.3781 345.21564Q498.3781 347.325 498.8781 348.02814Q499.3781 348.73126 500.09686 348.73126Q500.83124 348.73126 501.3156 348.02814Q501.8156 347.325 501.8156 345.21564Q501.8156 343.09064 501.3156 342.40314Q500.83124 341.7 500.08124 341.7Q499.3625 341.7 498.925 342.3094Q498.3781 343.09064 498.3781 345.21564Z" fill-rule="nonzero"/><path stroke="#4285f4" stroke-width="4.0" stroke-linecap="butt" d="M200.5 61.916668L212.5 61.916668" fill-rule="nonzero"/><path fill="#ffffff" d="M227.0625 57.322914L228.20312 57.322914L228.20312 62.291664Q228.20312 63.58854 227.90625 64.354164Q227.60938 65.104164 226.84375 65.58854Q226.07812 66.05729 224.84375 66.05729Q223.64062 66.05729 222.85938 65.65104Q222.09375 65.229164 221.76562 64.447914Q221.4375 63.65104 221.4375 62.291664L221.4375 57.322914L222.57812 57.322914L222.57812 62.27604Q222.57812 63.40104 222.78125 63.93229Q223.0 64.46354 223.5 64.760414Q224.01562 65.041664 224.75 65.041664Q226.0 65.041664 226.53125 64.479164Q227.0625 63.90104 227.0625 62.27604L227.0625 57.322914ZM230.04688 63.15104L231.10938 63.05729Q231.1875 63.71354 231.46875 64.11979Q231.75 64.52604 232.32812 64.791664Q232.92188 65.041664 233.65625 65.041664Q234.29688 65.041664 234.79688 64.854164Q235.29688 64.65104 235.53125 64.322914Q235.78125 63.979164 235.78125 63.58854Q235.78125 63.18229 235.54688 62.885414Q235.3125 62.572914 234.78125 62.36979Q234.42188 62.229164 233.23438 61.947914Q232.0625 61.666664 231.59375 61.416664Q230.96875 61.08854 230.67188 60.61979Q230.375 60.135414 230.375 59.541664Q230.375 58.90104 230.73438 58.33854Q231.10938 57.760414 231.8125 57.479164Q232.53125 57.18229 233.39062 57.18229Q234.34375 57.18229 235.07812 57.49479Q235.8125 57.791664 236.20312 58.40104Q236.59375 58.99479 236.625 59.74479L235.53125 59.822914Q235.4375 59.010414 234.92188 58.604164Q234.42188 58.18229 233.4375 58.18229Q232.40625 58.18229 231.9375 58.55729Q231.46875 58.93229 231.46875 59.46354Q231.46875 59.93229 231.79688 60.229164Q232.125 60.52604 233.5 60.83854Q234.89062 61.15104 235.40625 61.385414Q236.15625 61.74479 236.51562 62.27604Q236.875 62.791664 236.875 63.49479Q236.875 64.18229 236.48438 64.791664Q236.09375 65.385414 235.35938 65.729164Q234.625 66.05729 233.70312 66.05729Q232.53125 66.05729 231.73438 65.729164Q230.95312 65.385414 230.5 64.697914Q230.0625 64.010414 230.04688 63.15104ZM238.42188 65.916664L238.42188 57.322914L241.39062 57.322914Q242.39062 57.322914 242.92188 57.447914Q243.65625 57.61979 244.17188 58.05729Q244.85938 58.635414 245.1875 59.541664Q245.53125 60.43229 245.53125 61.572914Q245.53125 62.55729 245.29688 63.30729Q245.07812 64.05729 244.71875 64.55729Q244.35938 65.05729 243.92188 65.33854Q243.5 65.61979 242.90625 65.77604Q242.3125 65.916664 241.53125 65.916664L238.42188 65.916664ZM239.5625 64.90104L241.39062 64.90104Q242.25 64.90104 242.73438 64.74479Q243.21875 64.58854 243.5 64.291664Q243.90625 63.90104 244.125 63.21354Q244.35938 62.52604 244.35938 61.55729Q244.35938 60.21354 243.90625 59.49479Q243.46875 58.760414 242.84375 58.510414Q242.375 58.33854 241.375 58.33854L239.5625 58.33854L239.5625 64.90104ZM253.5625 62.90104L254.6875 63.197914Q254.32812 64.58854 253.40625 65.322914Q252.48438 66.05729 251.14062 66.05729Q249.75 66.05729 248.875 65.49479Q248.0 64.93229 247.54688 63.86979Q247.09375 62.791664 247.09375 61.55729Q247.09375 60.21354 247.60938 59.21354Q248.125 58.21354 249.0625 57.697914Q250.01562 57.18229 251.15625 57.18229Q252.4375 57.18229 253.3125 57.83854Q254.20312 58.49479 254.54688 59.68229L253.42188 59.947914Q253.125 59.010414 252.54688 58.58854Q251.98438 58.15104 251.125 58.15104Q250.14062 58.15104 249.46875 58.635414Q248.8125 59.104164 248.53125 59.90104Q248.26562 60.697914 248.26562 61.55729Q248.26562 62.65104 248.57812 63.46354Q248.90625 64.27604 249.57812 64.68229Q250.25 65.08854 251.04688 65.08854Q252.0 65.08854 252.65625 64.541664Q253.32812 63.99479 253.5625 62.90104ZM260.92188 65.916664L258.64062 57.322914L259.8125 57.322914L261.125 62.96354Q261.32812 63.83854 261.48438 64.71354Q261.8125 63.33854 261.875 63.11979L263.5 57.322914L264.875 57.322914L266.10938 61.666664Q266.5625 63.291664 266.78125 64.71354Q266.9375 63.90104 267.20312 62.83854L268.54688 57.322914L269.6875 57.322914L267.34375 65.916664L266.23438 65.916664L264.4375 59.36979Q264.20312 58.55729 264.15625 58.36979Q264.03125 58.947914 263.90625 59.36979L262.09375 65.916664L260.92188 65.916664ZM274.54688 63.916664L275.64062 64.041664Q275.39062 64.99479 274.6875 65.52604Q273.98438 66.05729 272.90625 66.05729Q271.54688 66.05729 270.73438 65.21354Q269.9375 64.36979 269.9375 62.854164Q269.9375 61.291664 270.75 60.43229Q271.5625 59.55729 272.84375 59.55729Q274.09375 59.55729 274.875 60.40104Q275.67188 61.24479 275.67188 62.791664Q275.67188 62.885414 275.67188 63.072914L271.03125 63.072914Q271.09375 64.104164 271.60938 64.65104Q272.125 65.18229 272.90625 65.18229Q273.48438 65.18229 273.89062 64.885414Q274.3125 64.572914 274.54688 63.916664ZM271.09375 62.21354L274.5625 62.21354Q274.5 61.416664 274.17188 61.02604Q273.65625 60.416664 272.85938 60.416664Q272.125 60.416664 271.625 60.90104Q271.14062 61.385414 271.09375 62.21354ZM277.29688 58.541664L277.29688 57.322914L278.35938 57.322914L278.35938 58.541664L277.29688 58.541664ZM277.29688 65.916664L277.29688 59.697914L278.35938 59.697914L278.35938 65.916664L277.29688 65.916664ZM280.09375 66.43229L281.125 66.58854Q281.1875 67.05729 281.48438 67.27604Q281.875 67.572914 282.54688 67.572914Q283.28125 67.572914 283.67188 67.27604Q284.07812 66.979164 284.21875 66.46354Q284.3125 66.135414 284.29688 65.104164Q283.60938 65.916664 282.57812 65.916664Q281.29688 65.916664 280.59375 64.99479Q279.89062 64.05729 279.89062 62.77604Q279.89062 61.885414 280.20312 61.135414Q280.53125 60.36979 281.14062 59.96354Q281.75 59.55729 282.57812 59.55729Q283.6875 59.55729 284.40625 60.447914L284.40625 59.697914L285.375 59.697914L285.375 65.072914Q285.375 66.52604 285.07812 67.135414Q284.78125 67.74479 284.14062 68.08854Q283.5 68.447914 282.5625 68.447914Q281.45312 68.447914 280.76562 67.947914Q280.07812 67.447914 280.09375 66.43229ZM280.96875 62.697914Q280.96875 63.916664 281.45312 64.479164Q281.9375 65.041664 282.67188 65.041664Q283.40625 65.041664 283.89062 64.479164Q284.39062 63.916664 284.39062 62.729164Q284.39062 61.58854 283.875 61.010414Q283.375 60.43229 282.65625 60.43229Q281.95312 60.43229 281.45312 61.010414Q280.96875 61.572914 280.96875 62.697914ZM287.29688 65.916664L287.29688 57.322914L288.34375 57.322914L288.34375 60.40104Q289.07812 59.55729 290.20312 59.55729Q290.90625 59.55729 291.40625 59.83854Q291.92188 60.104164 292.14062 60.58854Q292.35938 61.05729 292.35938 61.979164L292.35938 65.916664L291.3125 65.916664L291.3125 61.979164Q291.3125 61.18229 290.96875 60.822914Q290.625 60.46354 290.0 60.46354Q289.53125 60.46354 289.10938 60.71354Q288.70312 60.947914 288.51562 61.36979Q288.34375 61.77604 288.34375 62.510414L288.34375 65.916664L287.29688 65.916664ZM296.59375 64.979164L296.75 65.90104Q296.29688 65.99479 295.95312 65.99479Q295.375 65.99479 295.0625 65.822914Q294.75 65.635414 294.60938 65.33854Q294.48438 65.041664 294.48438 64.08854L294.48438 60.510414L293.71875 60.510414L293.71875 59.697914L294.48438 59.697914L294.48438 58.15104L295.53125 57.52604L295.53125 59.697914L296.59375 59.697914L296.59375 60.510414L295.53125 60.510414L295.53125 64.15104Q295.53125 64.604164 295.57812 64.729164Q295.64062 64.854164 295.76562 64.93229Q295.89062 65.010414 296.125 65.010414Q296.3125 65.010414 296.59375 64.979164Z" fill-rule="nonzero"/><path stroke="#ea4335" stroke-width="4.0" stroke-linecap="butt" d="M312.5 61.916668L324.5 61.916668" fill-rule="nonzero"/><path fill="#ffffff" d="M333.4375 65.916664L333.4375 57.322914L337.25 57.322914Q338.40625 57.322914 339.0 57.55729Q339.59375 57.791664 339.95312 58.385414Q340.3125 58.96354 340.3125 59.666664Q340.3125 60.58854 339.71875 61.21354Q339.125 61.83854 337.89062 62.010414Q338.34375 62.229164 338.57812 62.43229Q339.07812 62.885414 339.51562 63.572914L341.01562 65.916664L339.57812 65.916664L338.45312 64.135414Q337.95312 63.354164 337.625 62.947914Q337.3125 62.541664 337.04688 62.385414Q336.79688 62.21354 336.53125 62.135414Q336.34375 62.104164 335.90625 62.104164L334.57812 62.104164L334.57812 65.916664L333.4375 65.916664ZM334.57812 61.11979L337.03125 61.11979Q337.79688 61.11979 338.23438 60.96354Q338.6875 60.791664 338.90625 60.447914Q339.14062 60.08854 339.14062 59.666664Q339.14062 59.05729 338.6875 58.666664Q338.25 58.27604 337.29688 58.27604L334.57812 58.27604L334.57812 61.11979ZM341.48438 65.916664L344.78125 57.322914L346.0 57.322914L349.51562 65.916664L348.23438 65.916664L347.21875 63.30729L343.64062 63.30729L342.6875 65.916664L341.48438 65.916664ZM343.96875 62.385414L346.875 62.385414L345.98438 60.010414Q345.5625 58.93229 345.375 58.229164Q345.20312 59.05729 344.90625 59.86979L343.96875 62.385414ZM350.42188 65.916664L350.42188 57.322914L353.39062 57.322914Q354.39062 57.322914 354.92188 57.447914Q355.65625 57.61979 356.17188 58.05729Q356.85938 58.635414 357.1875 59.541664Q357.53125 60.43229 357.53125 61.572914Q357.53125 62.55729 357.29688 63.30729Q357.07812 64.05729 356.71875 64.55729Q356.35938 65.05729 355.92188 65.33854Q355.5 65.61979 354.90625 65.77604Q354.3125 65.916664 353.53125 65.916664L350.42188 65.916664ZM351.5625 64.90104L353.39062 64.90104Q354.25 64.90104 354.73438 64.74479Q355.21875 64.58854 355.5 64.291664Q355.90625 63.90104 356.125 63.21354Q356.35938 62.52604 356.35938 61.55729Q356.35938 60.21354 355.90625 59.49479Q355.46875 58.760414 354.84375 58.510414Q354.375 58.33854 353.375 58.33854L351.5625 58.33854L351.5625 64.90104ZM363.92188 65.916664L361.64062 57.322914L362.8125 57.322914L364.125 62.96354Q364.32812 63.83854 364.48438 64.71354Q364.8125 63.33854 364.875 63.11979L366.5 57.322914L367.875 57.322914L369.10938 61.666664Q369.5625 63.291664 369.78125 64.71354Q369.9375 63.90104 370.20312 62.83854L371.54688 57.322914L372.6875 57.322914L370.34375 65.916664L369.23438 65.916664L367.4375 59.36979Q367.20312 58.55729 367.15625 58.36979Q367.03125 58.947914 366.90625 59.36979L365.09375 65.916664L363.92188 65.916664ZM377.54688 63.916664L378.64062 64.041664Q378.39062 64.99479 377.6875 65.52604Q376.98438 66.05729 375.90625 66.05729Q374.54688 66.05729 373.73438 65.21354Q372.9375 64.36979 372.9375 62.854164Q372.9375 61.291664 373.75 60.43229Q374.5625 59.55729 375.84375 59.55729Q377.09375 59.55729 377.875 60.40104Q378.67188 61.24479 378.67188 62.791664Q378.67188 62.885414 378.67188 63.072914L374.03125 63.072914Q374.09375 64.104164 374.60938 64.65104Q375.125 65.18229 375.90625 65.18229Q376.48438 65.18229 376.89062 64.885414Q377.3125 64.572914 377.54688 63.916664ZM374.09375 62.21354L377.5625 62.21354Q377.5 61.416664 377.17188 61.02604Q376.65625 60.416664 375.85938 60.416664Q375.125 60.416664 374.625 60.90104Q374.14062 61.385414 374.09375 62.21354ZM380.29688 58.541664L380.29688 57.322914L381.35938 57.322914L381.35938 58.541664L380.29688 58.541664ZM380.29688 65.916664L380.29688 59.697914L381.35938 59.697914L381.35938 65.916664L380.29688 65.916664ZM383.09375 66.43229L384.125 66.58854Q384.1875 67.05729 384.48438 67.27604Q384.875 67.572914 385.54688 67.572914Q386.28125 67.572914 386.67188 67.27604Q387.07812 66.979164 387.21875 66.46354Q387.3125 66.135414 387.29688 65.104164Q386.60938 65.916664 385.57812 65.916664Q384.29688 65.916664 383.59375 64.99479Q382.89062 64.05729 382.89062 62.77604Q382.89062 61.885414 383.20312 61.135414Q383.53125 60.36979 384.14062 59.96354Q384.75 59.55729 385.57812 59.55729Q386.6875 59.55729 387.40625 60.447914L387.40625 59.697914L388.375 59.697914L388.375 65.072914Q388.375 66.52604 388.07812 67.135414Q387.78125 67.74479 387.14062 68.08854Q386.5 68.447914 385.5625 68.447914Q384.45312 68.447914 383.76562 67.947914Q383.07812 67.447914 383.09375 66.43229ZM383.96875 62.697914Q383.96875 63.916664 384.45312 64.479164Q384.9375 65.041664 385.67188 65.041664Q386.40625 65.041664 386.89062 64.479164Q387.39062 63.916664 387.39062 62.729164Q387.39062 61.58854 386.875 61.010414Q386.375 60.43229 385.65625 60.43229Q384.95312 60.43229 384.45312 61.010414Q383.96875 61.572914 383.96875 62.697914ZM390.29688 65.916664L390.29688 57.322914L391.34375 57.322914L391.34375 60.40104Q392.07812 59.55729 393.20312 59.55729Q393.90625 59.55729 394.40625 59.83854Q394.92188 60.104164 395.14062 60.58854Q395.35938 61.05729 395.35938 61.979164L395.35938 65.916664L394.3125 65.916664L394.3125 61.979164Q394.3125 61.18229 393.96875 60.822914Q393.625 60.46354 393.0 60.46354Q392.53125 60.46354 392.10938 60.71354Q391.70312 60.947914 391.51562 61.36979Q391.34375 61.77604 391.34375 62.510414L391.34375 65.916664L390.29688 65.916664ZM399.59375 64.979164L399.75 65.90104Q399.29688 65.99479 398.95312 65.99479Q398.375 65.99479 398.0625 65.822914Q397.75 65.635414 397.60938 65.33854Q397.48438 65.041664 397.48438 64.08854L397.48438 60.510414L396.71875 60.510414L396.71875 59.697914L397.48438 59.697914L397.48438 58.15104L398.53125 57.52604L398.53125 59.697914L399.59375 59.697914L399.59375 60.510414L398.53125 60.510414L398.53125 64.15104Q398.53125 64.604164 398.57812 64.729164Q398.64062 64.854164 398.76562 64.93229Q398.89062 65.010414 399.125 65.010414Q399.3125 65.010414 399.59375 64.979164Z" fill-rule="nonzero"/><path fill="#ffffff" d="M193.96875 37.55L193.96875 23.2375L195.85938 23.2375L195.85938 35.8625L202.90625 35.8625L202.90625 37.55L193.96875 37.55ZM204.96875 37.55L204.96875 23.2375L210.34375 23.2375Q211.98438 23.2375 212.96875 23.675Q213.95312 24.096874 214.51562 25.003124Q215.07812 25.909374 215.07812 26.89375Q215.07812 27.815624 214.57812 28.628124Q214.09375 29.440624 213.07812 29.925Q214.375 30.315624 215.07812 31.2375Q215.78125 32.14375 215.78125 33.39375Q215.78125 34.409374 215.34375 35.26875Q214.92188 36.128124 214.29688 36.596874Q213.67188 37.065624 212.73438 37.315624Q211.79688 37.55 210.42188 37.55L204.96875 37.55ZM206.85938 29.253124L209.95312 29.253124Q211.21875 29.253124 211.76562 29.08125Q212.48438 28.8625 212.84375 28.378124Q213.21875 27.878124 213.21875 27.1125Q213.21875 26.409374 212.875 25.8625Q212.53125 25.315624 211.89062 25.128124Q211.26562 24.925 209.71875 24.925L206.85938 24.925L206.85938 29.253124ZM206.85938 35.8625L210.42188 35.8625Q211.34375 35.8625 211.71875 35.784374Q212.375 35.675 212.8125 35.409374Q213.25 35.128124 213.53125 34.6125Q213.8125 34.08125 213.8125 33.39375Q213.8125 32.596874 213.40625 32.003124Q213.0 31.409374 212.26562 31.175Q211.53125 30.940624 210.17188 30.940624L206.85938 30.940624L206.85938 35.8625ZM218.04688 37.55L218.04688 23.2375L223.4375 23.2375Q224.875 23.2375 225.625 23.3625Q226.67188 23.55 227.39062 24.05Q228.10938 24.534374 228.53125 25.425Q228.96875 26.315624 228.96875 27.378124Q228.96875 29.20625 227.79688 30.471874Q226.64062 31.721874 223.60938 31.721874L219.9375 31.721874L219.9375 37.55L218.04688 37.55ZM219.9375 30.034374L223.64062 30.034374Q225.46875 30.034374 226.23438 29.3625Q227.01562 28.675 227.01562 27.425Q227.01562 26.534374 226.5625 25.89375Q226.10938 25.253124 225.375 25.05Q224.89062 24.925 223.59375 24.925L219.9375 24.925L219.9375 30.034374ZM239.54688 37.55L235.75 23.2375L237.6875 23.2375L239.85938 32.6125Q240.21875 34.096874 240.46875 35.55Q241.01562 33.253124 241.10938 32.89375L243.84375 23.2375L246.125 23.2375L248.17188 30.471874Q248.95312 33.175 249.29688 35.55Q249.5625 34.190624 250.0 32.425L252.25 23.2375L254.15625 23.2375L250.23438 37.55L248.40625 37.55L245.39062 26.64375Q245.0 25.26875 244.9375 24.95625Q244.70312 25.940624 244.51562 26.64375L241.48438 37.55L239.54688 37.55ZM262.92188 34.20625L264.73438 34.440624Q264.3125 36.01875 263.14062 36.909374Q261.98438 37.784374 260.17188 37.784374Q257.90625 37.784374 256.5625 36.39375Q255.23438 34.9875 255.23438 32.45625Q255.23438 29.83125 256.57812 28.39375Q257.92188 26.940624 260.07812 26.940624Q262.15625 26.940624 263.46875 28.3625Q264.79688 29.76875 264.79688 32.346874Q264.79688 32.503124 264.78125 32.815624L257.04688 32.815624Q257.14062 34.51875 258.01562 35.425Q258.89062 36.33125 260.1875 36.33125Q261.15625 36.33125 261.82812 35.83125Q262.51562 35.315624 262.92188 34.20625ZM257.14062 31.3625L262.9375 31.3625Q262.82812 30.065624 262.28125 29.409374Q261.4375 28.39375 260.09375 28.39375Q258.89062 28.39375 258.0625 29.20625Q257.23438 30.003124 257.14062 31.3625ZM266.82812 25.253124L266.82812 23.2375L268.59375 23.2375L268.59375 25.253124L266.82812 25.253124ZM266.82812 37.55L266.82812 27.175L268.59375 27.175L268.59375 37.55L266.82812 37.55ZM270.5 38.409374L272.20312 38.659374Q272.3125 39.45625 272.79688 39.815624Q273.45312 40.3 274.59375 40.3Q275.8125 40.3 276.46875 39.815624Q277.14062 39.33125 277.375 38.45625Q277.51562 37.909374 277.5 36.190624Q276.34375 37.55 274.625 37.55Q272.48438 37.55 271.3125 36.003124Q270.14062 34.45625 270.14062 32.3Q270.14062 30.815624 270.67188 29.565624Q271.21875 28.315624 272.23438 27.628124Q273.26562 26.940624 274.64062 26.940624Q276.46875 26.940624 277.67188 28.425L277.67188 27.175L279.28125 27.175L279.28125 36.14375Q279.28125 38.565624 278.78125 39.565624Q278.29688 40.58125 277.21875 41.159374Q276.15625 41.753124 274.59375 41.753124Q272.75 41.753124 271.59375 40.925Q270.45312 40.096874 270.5 38.409374ZM271.95312 32.175Q271.95312 34.221874 272.76562 35.159374Q273.57812 36.096874 274.79688 36.096874Q276.0 36.096874 276.8125 35.159374Q277.64062 34.221874 277.64062 32.2375Q277.64062 30.33125 276.79688 29.3625Q275.95312 28.39375 274.76562 28.39375Q273.59375 28.39375 272.76562 29.346874Q271.95312 30.3 271.95312 32.175ZM281.8125 37.55L281.8125 23.2375L283.57812 23.2375L283.57812 28.3625Q284.8125 26.940624 286.6875 26.940624Q287.82812 26.940624 288.67188 27.39375Q289.53125 27.846874 289.89062 28.659374Q290.26562 29.45625 290.26562 30.971874L290.26562 37.55L288.51562 37.55L288.51562 30.971874Q288.51562 29.659374 287.9375 29.065624Q287.35938 28.45625 286.32812 28.45625Q285.54688 28.45625 284.84375 28.8625Q284.15625 29.26875 283.85938 29.971874Q283.57812 30.659374 283.57812 31.878124L283.57812 37.55L281.8125 37.55ZM296.65625 35.971874L296.90625 37.534374Q296.17188 37.690624 295.57812 37.690624Q294.625 37.690624 294.09375 37.39375Q293.57812 37.08125 293.35938 36.596874Q293.14062 36.096874 293.14062 34.51875L293.14062 28.55L291.85938 28.55L291.85938 27.175L293.14062 27.175L293.14062 24.6125L294.89062 23.55L294.89062 27.175L296.65625 27.175L296.65625 28.55L294.89062 28.55L294.89062 34.6125Q294.89062 35.3625 294.98438 35.58125Q295.07812 35.784374 295.28125 35.925Q295.5 36.05 295.89062 36.05Q296.17188 36.05 296.65625 35.971874ZM298.10938 34.45625L299.85938 34.175Q300.0 35.221874 300.67188 35.784374Q301.34375 36.33125 302.54688 36.33125Q303.75 36.33125 304.32812 35.846874Q304.92188 35.346874 304.92188 34.690624Q304.92188 34.096874 304.40625 33.753124Q304.04688 33.51875 302.60938 33.159374Q300.67188 32.659374 299.92188 32.315624Q299.1875 31.95625 298.79688 31.33125Q298.40625 30.690624 298.40625 29.925Q298.40625 29.2375 298.71875 28.64375Q299.04688 28.05 299.59375 27.659374Q300.0 27.3625 300.70312 27.159374Q301.42188 26.940624 302.23438 26.940624Q303.45312 26.940624 304.375 27.3Q305.29688 27.64375 305.73438 28.253124Q306.17188 28.846874 306.34375 29.846874L304.625 30.08125Q304.5 29.284374 303.9375 28.846874Q303.375 28.39375 302.35938 28.39375Q301.14062 28.39375 300.625 28.8Q300.10938 29.190624 300.10938 29.721874Q300.10938 30.065624 300.32812 30.346874Q300.53125 30.628124 301.0 30.815624Q301.26562 30.909374 302.54688 31.253124Q304.42188 31.753124 305.15625 32.08125Q305.89062 32.39375 306.3125 33.003124Q306.73438 33.596874 306.73438 34.503124Q306.73438 35.378124 306.21875 36.159374Q305.70312 36.940624 304.73438 37.3625Q303.76562 37.784374 302.54688 37.784374Q300.53125 37.784374 299.46875 36.940624Q298.40625 36.096874 298.10938 34.45625ZM314.46875 30.58125Q314.46875 27.01875 316.375 25.003124Q318.29688 22.971874 321.32812 22.971874Q323.3125 22.971874 324.89062 23.925Q326.48438 24.878124 327.3125 26.58125Q328.15625 28.26875 328.15625 30.409374Q328.15625 32.58125 327.28125 34.3Q326.40625 36.01875 324.78125 36.909374Q323.17188 37.8 321.3125 37.8Q319.29688 37.8 317.70312 36.83125Q316.10938 35.846874 315.28125 34.159374Q314.46875 32.45625 314.46875 30.58125ZM316.42188 30.6125Q316.42188 33.190624 317.8125 34.690624Q319.20312 36.175 321.29688 36.175Q323.4375 36.175 324.8125 34.675Q326.20312 33.159374 326.20312 30.39375Q326.20312 28.659374 325.60938 27.3625Q325.03125 26.05 323.89062 25.33125Q322.75 24.6125 321.32812 24.6125Q319.32812 24.6125 317.875 26.003124Q316.42188 27.378124 316.42188 30.6125ZM333.70312 37.55L329.75 27.175L331.60938 27.175L333.84375 33.39375Q334.20312 34.39375 334.5 35.471874Q334.73438 34.659374 335.15625 33.503124L337.45312 27.175L339.26562 27.175L335.34375 37.55L333.70312 37.55ZM347.92188 34.20625L349.73438 34.440624Q349.3125 36.01875 348.14062 36.909374Q346.98438 37.784374 345.17188 37.784374Q342.90625 37.784374 341.5625 36.39375Q340.23438 34.9875 340.23438 32.45625Q340.23438 29.83125 341.57812 28.39375Q342.92188 26.940624 345.07812 26.940624Q347.15625 26.940624 348.46875 28.3625Q349.79688 29.76875 349.79688 32.346874Q349.79688 32.503124 349.78125 32.815624L342.04688 32.815624Q342.14062 34.51875 343.01562 35.425Q343.89062 36.33125 345.1875 36.33125Q346.15625 36.33125 346.82812 35.83125Q347.51562 35.315624 347.92188 34.20625ZM342.14062 31.3625L347.9375 31.3625Q347.82812 30.065624 347.28125 29.409374Q346.4375 28.39375 345.09375 28.39375Q343.89062 28.39375 343.0625 29.20625Q342.23438 30.003124 342.14062 31.3625ZM351.79688 37.55L351.79688 27.175L353.375 27.175L353.375 28.753124Q353.98438 27.64375 354.5 27.3Q355.01562 26.940624 355.625 26.940624Q356.51562 26.940624 357.4375 27.503124L356.82812 29.14375Q356.1875 28.753124 355.54688 28.753124Q354.96875 28.753124 354.5 29.1125Q354.04688 29.45625 353.84375 30.065624Q353.5625 31.003124 353.5625 32.1125L353.5625 37.55L351.79688 37.55ZM368.6875 37.55L368.6875 24.925L363.96875 24.925L363.96875 23.2375L375.3125 23.2375L375.3125 24.925L370.57812 24.925L370.57812 37.55L368.6875 37.55ZM376.82812 25.253124L376.82812 23.2375L378.59375 23.2375L378.59375 25.253124L376.82812 25.253124ZM376.82812 37.55L376.82812 27.175L378.59375 27.175L378.59375 37.55L376.82812 37.55ZM380.8125 37.55L380.8125 27.175L382.39062 27.175L382.39062 28.628124Q382.875 27.878124 383.6875 27.409374Q384.5 26.940624 385.53125 26.940624Q386.6875 26.940624 387.42188 27.425Q388.15625 27.89375 388.46875 28.753124Q389.70312 26.940624 391.67188 26.940624Q393.21875 26.940624 394.04688 27.8Q394.875 28.659374 394.875 30.425L394.875 37.55L393.125 37.55L393.125 31.01875Q393.125 29.95625 392.95312 29.503124Q392.78125 29.034374 392.32812 28.753124Q391.89062 28.471874 391.28125 28.471874Q390.1875 28.471874 389.45312 29.20625Q388.73438 29.925 388.73438 31.51875L388.73438 37.55L386.98438 37.55L386.98438 30.815624Q386.98438 29.64375 386.54688 29.065624Q386.125 28.471874 385.14062 28.471874Q384.40625 28.471874 383.76562 28.8625Q383.14062 29.253124 382.85938 30.003124Q382.57812 30.753124 382.57812 32.175L382.57812 37.55L380.8125 37.55ZM404.92188 34.20625L406.73438 34.440624Q406.3125 36.01875 405.14062 36.909374Q403.98438 37.784374 402.17188 37.784374Q399.90625 37.784374 398.5625 36.39375Q397.23438 34.9875 397.23438 32.45625Q397.23438 29.83125 398.57812 28.39375Q399.92188 26.940624 402.07812 26.940624Q404.15625 26.940624 405.46875 28.3625Q406.79688 29.76875 406.79688 32.346874Q406.79688 32.503124 406.78125 32.815624L399.04688 32.815624Q399.14062 34.51875 400.01562 35.425Q400.89062 36.33125 402.1875 36.33125Q403.15625 36.33125 403.82812 35.83125Q404.51562 35.315624 404.92188 34.20625ZM399.14062 31.3625L404.9375 31.3625Q404.82812 30.065624 404.28125 29.409374Q403.4375 28.39375 402.09375 28.39375Q400.89062 28.39375 400.0625 29.20625Q399.23438 30.003124 399.14062 31.3625Z" fill-rule="nonzero"/></svg>